<svg width="720" height="416" xmlns="http://www.w3.org/2000/svg" xmlns:xlink="http://www.w3.org/1999/xlink" xml:space="preserve" overflow="hidden"><g transform="matrix(1 0 0 1 0 -312)"><g><g><g><g><path d="M11.1853 378.411C11.1853 376.807 12.486 375.505 14.0905 375.505 15.695 375.505 16.9958 376.807 16.9958 378.411 16.9958 380.014 15.695 381.316 14.0905 381.316 12.486 381.316 11.1853 380.014 11.1853 378.411Z" stroke="#172C51" stroke-width="1.33158" stroke-linecap="butt" stroke-linejoin="miter" stroke-miterlimit="8" stroke-opacity="1" fill="#4472C4" fill-rule="evenodd" fill-opacity="1" transform="matrix(1.00132 0 0 1 0 4.17053)"/><path d="M35.5895 378.265C35.5895 376.74 36.8251 375.505 38.3495 375.505 39.8739 375.505 41.1095 376.74 41.1095 378.265 41.1095 379.791 39.8739 381.025 38.3495 381.025 36.8251 381.025 35.5895 379.791 35.5895 378.265Z" stroke="#172C51" stroke-width="1.33158" stroke-linecap="butt" stroke-linejoin="miter" stroke-miterlimit="8" stroke-opacity="1" fill="#4472C4" fill-rule="evenodd" fill-opacity="1" transform="matrix(1.00132 0 0 1 0 4.17053)"/><path d="M11.1853 401.943C11.1853 400.339 12.486 399.038 14.0905 399.038 15.695 399.038 16.9958 400.339 16.9958 401.943 16.9958 403.547 15.695 404.848 14.0905 404.848 12.486 404.848 11.1853 403.547 11.1853 401.943Z" stroke="#172C51" stroke-width="1.33158" stroke-linecap="butt" stroke-linejoin="miter" stroke-miterlimit="8" stroke-opacity="1" fill="#4472C4" fill-rule="evenodd" fill-opacity="1" transform="matrix(1.00132 0 0 1 0 4.17053)"/><path d="M35.5895 401.943C35.5895 400.339 36.8251 399.038 38.3495 399.038 39.8739 399.038 41.1095 400.339 41.1095 401.943 41.1095 403.547 39.8739 404.848 38.3495 404.848 36.8251 404.848 35.5895 403.547 35.5895 401.943Z" stroke="#172C51" stroke-width="1.33158" stroke-linecap="butt" stroke-linejoin="miter" stroke-miterlimit="8" stroke-opacity="1" fill="#4472C4" fill-rule="evenodd" fill-opacity="1" transform="matrix(1.00132 0 0 1 0 4.17053)"/><path d="M59.9937 378.265C59.9937 376.74 61.2293 375.505 62.7537 375.505 64.2781 375.505 65.5137 376.74 65.5137 378.265 65.5137 379.791 64.2781 381.025 62.7537 381.025 61.2293 381.025 59.9937 379.791 59.9937 378.265Z" stroke="#172C51" stroke-width="1.33158" stroke-linecap="butt" stroke-linejoin="miter" stroke-miterlimit="8" stroke-opacity="1" fill="#4472C4" fill-rule="evenodd" fill-opacity="1" transform="matrix(1.00132 0 0 1 0 4.17053)"/><path d="M59.9937 401.943C59.9937 400.339 61.2293 399.038 62.7537 399.038 64.2781 399.038 65.5137 400.339 65.5137 401.943 65.5137 403.547 64.2781 404.848 62.7537 404.848 61.2293 404.848 59.9937 403.547 59.9937 401.943Z" stroke="#172C51" stroke-width="1.33158" stroke-linecap="butt" stroke-linejoin="miter" stroke-miterlimit="8" stroke-opacity="1" fill="#4472C4" fill-rule="evenodd" fill-opacity="1" transform="matrix(1.00132 0 0 1 0 4.17053)"/><path d="M84.1074 378.265C84.1074 376.74 85.4081 375.505 87.0126 375.505 88.6172 375.505 89.9179 376.74 89.9179 378.265 89.9179 379.791 88.6172 381.025 87.0126 381.025 85.4081 381.025 84.1074 379.791 84.1074 378.265Z" stroke="#172C51" stroke-width="1.33158" stroke-linecap="butt" stroke-linejoin="miter" stroke-miterlimit="8" stroke-opacity="1" fill="#4472C4" fill-rule="evenodd" fill-opacity="1" transform="matrix(1.00132 0 0 1 0 4.17053)"/><path d="M84.1074 401.943C84.1074 400.339 85.4081 399.038 87.0126 399.038 88.6172 399.038 89.9179 400.339 89.9179 401.943 89.9179 403.547 88.6172 404.848 87.0126 404.848 85.4081 404.848 84.1074 403.547 84.1074 401.943Z" stroke="#172C51" stroke-width="1.33158" stroke-linecap="butt" stroke-linejoin="miter" stroke-miterlimit="8" stroke-opacity="1" fill="#4472C4" fill-rule="evenodd" fill-opacity="1" transform="matrix(1.00132 0 0 1 0 4.17053)"/><path d="M11.1853 425.476C11.1853 423.872 12.486 422.571 14.0905 422.571 15.695 422.571 16.9958 423.872 16.9958 425.476 16.9958 427.08 15.695 428.381 14.0905 428.381 12.486 428.381 11.1853 427.08 11.1853 425.476Z" stroke="#172C51" stroke-width="1.33158" stroke-linecap="butt" stroke-linejoin="miter" stroke-miterlimit="8" stroke-opacity="1" fill="#4472C4" fill-rule="evenodd" fill-opacity="1" transform="matrix(1.00132 0 0 1 0 4.17053)"/><path d="M35.5895 425.476C35.5895 423.872 36.8251 422.571 38.3495 422.571 39.8739 422.571 41.1095 423.872 41.1095 425.476 41.1095 427.08 39.8739 428.381 38.3495 428.381 36.8251 428.381 35.5895 427.08 35.5895 425.476Z" stroke="#172C51" stroke-width="1.33158" stroke-linecap="butt" stroke-linejoin="miter" stroke-miterlimit="8" stroke-opacity="1" fill="#4472C4" fill-rule="evenodd" fill-opacity="1" transform="matrix(1.00132 0 0 1 0 4.17053)"/><path d="M59.9937 425.476C59.9937 423.872 61.2293 422.571 62.7537 422.571 64.2781 422.571 65.5137 423.872 65.5137 425.476 65.5137 427.08 64.2781 428.381 62.7537 428.381 61.2293 428.381 59.9937 427.08 59.9937 425.476Z" stroke="#172C51" stroke-width="1.33158" stroke-linecap="butt" stroke-linejoin="miter" stroke-miterlimit="8" stroke-opacity="1" fill="#4472C4" fill-rule="evenodd" fill-opacity="1" transform="matrix(1.00132 0 0 1 0 4.17053)"/><path d="M84.1074 425.476C84.1074 423.872 85.4081 422.571 87.0126 422.571 88.6172 422.571 89.9179 423.872 89.9179 425.476 89.9179 427.08 88.6172 428.381 87.0126 428.381 85.4081 428.381 84.1074 427.08 84.1074 425.476Z" stroke="#172C51" stroke-width="1.33158" stroke-linecap="butt" stroke-linejoin="miter" stroke-miterlimit="8" stroke-opacity="1" fill="#4472C4" fill-rule="evenodd" fill-opacity="1" transform="matrix(1.00132 0 0 1 0 4.17053)"/><path d="M0 0 18.6086 0.223852" stroke="#000000" stroke-width="1.33158" stroke-linecap="butt" stroke-linejoin="miter" stroke-miterlimit="8" stroke-opacity="1" fill="none" fill-rule="evenodd" transform="matrix(1.00132 0 0 -1 17.0182 382.514)"/><path d="M41.1095 378.12 59.7183 378.12" stroke="#000000" stroke-width="1.33158" stroke-linecap="butt" stroke-linejoin="miter" stroke-miterlimit="8" stroke-opacity="1" fill="none" fill-rule="evenodd" transform="matrix(1.00132 0 0 1 0 4.17053)"/><path d="M65.5137 378.12 84.1225 378.12" stroke="#000000" stroke-width="1.33158" stroke-linecap="butt" stroke-linejoin="miter" stroke-miterlimit="8" stroke-opacity="1" fill="none" fill-rule="evenodd" transform="matrix(1.00132 0 0 1 0 4.17053)"/><path d="M16.9958 401.943 35.6043 401.943" stroke="#000000" stroke-width="1.33158" stroke-linecap="butt" stroke-linejoin="miter" stroke-miterlimit="8" stroke-opacity="1" fill="none" fill-rule="evenodd" transform="matrix(1.00132 0 0 1 0 4.17053)"/><path d="M41.1095 401.943 59.7183 401.943" stroke="#000000" stroke-width="1.33158" stroke-linecap="butt" stroke-linejoin="miter" stroke-miterlimit="8" stroke-opacity="1" fill="none" fill-rule="evenodd" transform="matrix(1.00132 0 0 1 0 4.17053)"/><path d="M65.5137 401.943 84.1225 401.943" stroke="#000000" stroke-width="1.33158" stroke-linecap="butt" stroke-linejoin="miter" stroke-miterlimit="8" stroke-opacity="1" fill="none" fill-rule="evenodd" transform="matrix(1.00132 0 0 1 0 4.17053)"/><path d="M16.9958 425.476 35.6043 425.476" stroke="#000000" stroke-width="1.33158" stroke-linecap="butt" stroke-linejoin="miter" stroke-miterlimit="8" stroke-opacity="1" fill="none" fill-rule="evenodd" transform="matrix(1.00132 0 0 1 0 4.17053)"/><path d="M41.1095 425.476 59.7183 425.476" stroke="#000000" stroke-width="1.33158" stroke-linecap="butt" stroke-linejoin="miter" stroke-miterlimit="8" stroke-opacity="1" fill="none" fill-rule="evenodd" transform="matrix(1.00132 0 0 1 0 4.17053)"/><path d="M65.5137 425.476 84.1225 425.476" stroke="#000000" stroke-width="1.33158" stroke-linecap="butt" stroke-linejoin="miter" stroke-miterlimit="8" stroke-opacity="1" fill="none" fill-rule="evenodd" transform="matrix(1.00132 0 0 1 0 4.17053)"/><path d="M14.0905 381.316 14.0906 399.148" stroke="#000000" stroke-width="1.33158" stroke-linecap="butt" stroke-linejoin="miter" stroke-miterlimit="8" stroke-opacity="1" fill="none" fill-rule="evenodd" transform="matrix(1.00132 0 0 1 0 4.17053)"/><path d="M14.0905 404.848 14.0906 422.681" stroke="#000000" stroke-width="1.33158" stroke-linecap="butt" stroke-linejoin="miter" stroke-miterlimit="8" stroke-opacity="1" fill="none" fill-rule="evenodd" transform="matrix(1.00132 0 0 1 0 4.17053)"/><path d="M38.4947 381.025 38.4947 399.082" stroke="#000000" stroke-width="1.33158" stroke-linecap="butt" stroke-linejoin="miter" stroke-miterlimit="8" stroke-opacity="1" fill="none" fill-rule="evenodd" transform="matrix(1.00132 0 0 1 0 4.17053)"/><path d="M38.4947 404.848 38.4947 422.681" stroke="#000000" stroke-width="1.33158" stroke-linecap="butt" stroke-linejoin="miter" stroke-miterlimit="8" stroke-opacity="1" fill="none" fill-rule="evenodd" transform="matrix(1.00132 0 0 1 0 4.17053)"/><path d="M62.6084 381.025 62.6084 399.082" stroke="#000000" stroke-width="1.33158" stroke-linecap="butt" stroke-linejoin="miter" stroke-miterlimit="8" stroke-opacity="1" fill="none" fill-rule="evenodd" transform="matrix(1.00132 0 0 1 0 4.17053)"/><path d="M62.6084 404.848 62.6084 422.681" stroke="#000000" stroke-width="1.33158" stroke-linecap="butt" stroke-linejoin="miter" stroke-miterlimit="8" stroke-opacity="1" fill="none" fill-rule="evenodd" transform="matrix(1.00132 0 0 1 0 4.17053)"/><path d="M87.0126 381.025 87.0126 399.082" stroke="#000000" stroke-width="1.33158" stroke-linecap="butt" stroke-linejoin="miter" stroke-miterlimit="8" stroke-opacity="1" fill="none" fill-rule="evenodd" transform="matrix(1.00132 0 0 1 0 4.17053)"/><path d="M87.0126 404.848 87.0126 422.681" stroke="#000000" stroke-width="1.33158" stroke-linecap="butt" stroke-linejoin="miter" stroke-miterlimit="8" stroke-opacity="1" fill="none" fill-rule="evenodd" transform="matrix(1.00132 0 0 1 0 4.17053)"/><path d="M161.097 348.051C161.097 346.525 162.332 345.291 163.857 345.291 165.381 345.291 166.617 346.525 166.617 348.051 166.617 349.576 165.381 350.811 163.857 350.811 162.332 350.811 161.097 349.576 161.097 348.051Z" stroke="#172C51" stroke-width="1.33158" stroke-linecap="butt" stroke-linejoin="miter" stroke-miterlimit="8" stroke-opacity="1" fill="#70AD47" fill-rule="evenodd" fill-opacity="1" transform="matrix(1.00132 0 0 1 0 4.17053)"/><path d="M152.091 361.705C152.091 360.18 153.391 358.945 154.996 358.945 156.6 358.945 157.901 360.18 157.901 361.705 157.901 363.231 156.6 364.465 154.996 364.465 153.391 364.465 152.091 363.231 152.091 361.705Z" stroke="#172C51" stroke-width="1.33158" stroke-linecap="butt" stroke-linejoin="miter" stroke-miterlimit="8" stroke-opacity="1" fill="#70AD47" fill-rule="evenodd" fill-opacity="1" transform="matrix(1.00132 0 0 1 0 4.17053)"/><path d="M177.366 353.716C177.366 352.112 178.602 350.811 180.126 350.811 181.651 350.811 182.886 352.112 182.886 353.716 182.886 355.32 181.651 356.621 180.126 356.621 178.602 356.621 177.366 355.32 177.366 353.716Z" stroke="#172C51" stroke-width="1.33158" stroke-linecap="butt" stroke-linejoin="miter" stroke-miterlimit="8" stroke-opacity="1" fill="#70AD47" fill-rule="evenodd" fill-opacity="1" transform="matrix(1.00132 0 0 1 0 4.17053)"/><path d="M166.617 361.27C166.617 359.666 167.918 358.364 169.522 358.364 171.127 358.364 172.427 359.666 172.427 361.27 172.427 362.873 171.127 364.175 169.522 364.175 167.918 364.175 166.617 362.873 166.617 361.27Z" stroke="#172C51" stroke-width="1.33158" stroke-linecap="butt" stroke-linejoin="miter" stroke-miterlimit="8" stroke-opacity="1" fill="#70AD47" fill-rule="evenodd" fill-opacity="1" transform="matrix(1.00132 0 0 1 0 4.17053)"/><path d="M150.347 350.956C150.347 349.431 151.648 348.196 153.253 348.196 154.857 348.196 156.158 349.431 156.158 350.956 156.158 352.481 154.857 353.716 153.253 353.716 151.648 353.716 150.347 352.481 150.347 350.956Z" stroke="#172C51" stroke-width="1.33158" stroke-linecap="butt" stroke-linejoin="miter" stroke-miterlimit="8" stroke-opacity="1" fill="#70AD47" fill-rule="evenodd" fill-opacity="1" transform="matrix(1.00132 0 0 1 0 4.17053)"/><path d="M170.394 345.291C170.394 343.687 171.694 342.385 173.299 342.385 174.904 342.385 176.204 343.687 176.204 345.291 176.204 346.894 174.904 348.196 173.299 348.196 171.694 348.196 170.394 346.894 170.394 345.291Z" stroke="#172C51" stroke-width="1.33158" stroke-linecap="butt" stroke-linejoin="miter" stroke-miterlimit="8" stroke-opacity="1" fill="#70AD47" fill-rule="evenodd" fill-opacity="1" transform="matrix(1.00132 0 0 1 0 4.17053)"/><path d="M216.878 331.055C216.878 329.451 218.114 328.149 219.638 328.149 221.162 328.149 222.398 329.451 222.398 331.055 222.398 332.658 221.162 333.96 219.638 333.96 218.114 333.96 216.878 332.658 216.878 331.055Z" stroke="#172C51" stroke-width="1.33158" stroke-linecap="butt" stroke-linejoin="miter" stroke-miterlimit="8" stroke-opacity="1" fill="#FFC000" fill-rule="evenodd" fill-opacity="1" transform="matrix(1.00132 0 0 1 0 4.17053)"/><path d="M207.581 345.145C207.581 343.62 208.882 342.385 210.486 342.385 212.091 342.385 213.392 343.62 213.392 345.145 213.392 346.671 212.091 347.905 210.486 347.905 208.882 347.905 207.581 346.671 207.581 345.145Z" stroke="#172C51" stroke-width="1.33158" stroke-linecap="butt" stroke-linejoin="miter" stroke-miterlimit="8" stroke-opacity="1" fill="#FFC000" fill-rule="evenodd" fill-opacity="1" transform="matrix(1.00132 0 0 1 0 4.17053)"/><path d="M216.878 355.168C216.878 353.565 218.114 352.263 219.638 352.263 221.162 352.263 222.398 353.565 222.398 355.168 222.398 356.772 221.162 358.074 219.638 358.074 218.114 358.074 216.878 356.772 216.878 355.168Z" stroke="#172C51" stroke-width="1.33158" stroke-linecap="butt" stroke-linejoin="miter" stroke-miterlimit="8" stroke-opacity="1" fill="#FFC000" fill-rule="evenodd" fill-opacity="1" transform="matrix(1.00132 0 0 1 0 4.17053)"/><path d="M204.385 357.057C204.385 355.532 205.686 354.297 207.291 354.297 208.895 354.297 210.196 355.532 210.196 357.057 210.196 358.582 208.895 359.817 207.291 359.817 205.686 359.817 204.385 358.582 204.385 357.057Z" stroke="#172C51" stroke-width="1.33158" stroke-linecap="butt" stroke-linejoin="miter" stroke-miterlimit="8" stroke-opacity="1" fill="#FFC000" fill-rule="evenodd" fill-opacity="1" transform="matrix(1.00132 0 0 1 0 4.17053)"/><path d="M219.493 343.112C219.493 341.586 220.793 340.352 222.398 340.352 224.002 340.352 225.303 341.586 225.303 343.112 225.303 344.637 224.002 345.872 222.398 345.872 220.793 345.872 219.493 344.637 219.493 343.112Z" stroke="#172C51" stroke-width="1.33158" stroke-linecap="butt" stroke-linejoin="miter" stroke-miterlimit="8" stroke-opacity="1" fill="#FFC000" fill-rule="evenodd" fill-opacity="1" transform="matrix(1.00132 0 0 1 0 4.17053)"/><path d="M186.082 378.556C186.082 377.031 187.318 375.796 188.842 375.796 190.367 375.796 191.602 377.031 191.602 378.556 191.602 380.081 190.367 381.316 188.842 381.316 187.318 381.316 186.082 380.081 186.082 378.556Z" stroke="#172C51" stroke-width="1.33158" stroke-linecap="butt" stroke-linejoin="miter" stroke-miterlimit="8" stroke-opacity="1" fill="#4472C4" fill-rule="evenodd" fill-opacity="1" transform="matrix(1.00132 0 0 1 0 4.17053)"/><path d="M210.196 378.265C210.196 376.74 211.496 375.505 213.101 375.505 214.706 375.505 216.006 376.74 216.006 378.265 216.006 379.791 214.706 381.025 213.101 381.025 211.496 381.025 210.196 379.791 210.196 378.265Z" stroke="#172C51" stroke-width="1.33158" stroke-linecap="butt" stroke-linejoin="miter" stroke-miterlimit="8" stroke-opacity="1" fill="#4472C4" fill-rule="evenodd" fill-opacity="1" transform="matrix(1.00132 0 0 1 0 4.17053)"/><path d="M186.082 402.088C186.082 400.563 187.318 399.328 188.842 399.328 190.367 399.328 191.602 400.563 191.602 402.088 191.602 403.614 190.367 404.848 188.842 404.848 187.318 404.848 186.082 403.614 186.082 402.088Z" stroke="#172C51" stroke-width="1.33158" stroke-linecap="butt" stroke-linejoin="miter" stroke-miterlimit="8" stroke-opacity="1" fill="#4472C4" fill-rule="evenodd" fill-opacity="1" transform="matrix(1.00132 0 0 1 0 4.17053)"/><path d="M210.196 402.088C210.196 400.563 211.496 399.328 213.101 399.328 214.706 399.328 216.006 400.563 216.006 402.088 216.006 403.614 214.706 404.848 213.101 404.848 211.496 404.848 210.196 403.614 210.196 402.088Z" stroke="#172C51" stroke-width="1.33158" stroke-linecap="butt" stroke-linejoin="miter" stroke-miterlimit="8" stroke-opacity="1" fill="#4472C4" fill-rule="evenodd" fill-opacity="1" transform="matrix(1.00132 0 0 1 0 4.17053)"/><path d="M234.6 378.265C234.6 376.74 235.836 375.505 237.36 375.505 238.884 375.505 240.12 376.74 240.12 378.265 240.12 379.791 238.884 381.025 237.36 381.025 235.836 381.025 234.6 379.791 234.6 378.265Z" stroke="#172C51" stroke-width="1.33158" stroke-linecap="butt" stroke-linejoin="miter" stroke-miterlimit="8" stroke-opacity="1" fill="#4472C4" fill-rule="evenodd" fill-opacity="1" transform="matrix(1.00132 0 0 1 0 4.17053)"/><path d="M234.6 402.088C234.6 400.563 235.836 399.328 237.36 399.328 238.884 399.328 240.12 400.563 240.12 402.088 240.12 403.614 238.884 404.848 237.36 404.848 235.836 404.848 234.6 403.614 234.6 402.088Z" stroke="#172C51" stroke-width="1.33158" stroke-linecap="butt" stroke-linejoin="miter" stroke-miterlimit="8" stroke-opacity="1" fill="#4472C4" fill-rule="evenodd" fill-opacity="1" transform="matrix(1.00132 0 0 1 0 4.17053)"/><path d="M258.714 378.265C258.714 376.74 260.014 375.505 261.619 375.505 263.224 375.505 264.524 376.74 264.524 378.265 264.524 379.791 263.224 381.025 261.619 381.025 260.014 381.025 258.714 379.791 258.714 378.265Z" stroke="#172C51" stroke-width="1.33158" stroke-linecap="butt" stroke-linejoin="miter" stroke-miterlimit="8" stroke-opacity="1" fill="#4472C4" fill-rule="evenodd" fill-opacity="1" transform="matrix(1.00132 0 0 1 0 4.17053)"/><path d="M258.714 402.088C258.714 400.563 260.014 399.328 261.619 399.328 263.224 399.328 264.524 400.563 264.524 402.088 264.524 403.614 263.224 404.848 261.619 404.848 260.014 404.848 258.714 403.614 258.714 402.088Z" stroke="#172C51" stroke-width="1.33158" stroke-linecap="butt" stroke-linejoin="miter" stroke-miterlimit="8" stroke-opacity="1" fill="#4472C4" fill-rule="evenodd" fill-opacity="1" transform="matrix(1.00132 0 0 1 0 4.17053)"/><path d="M186.082 425.476C186.082 423.872 187.318 422.571 188.842 422.571 190.367 422.571 191.602 423.872 191.602 425.476 191.602 427.08 190.367 428.381 188.842 428.381 187.318 428.381 186.082 427.08 186.082 425.476Z" stroke="#172C51" stroke-width="1.33158" stroke-linecap="butt" stroke-linejoin="miter" stroke-miterlimit="8" stroke-opacity="1" fill="#4472C4" fill-rule="evenodd" fill-opacity="1" transform="matrix(1.00132 0 0 1 0 4.17053)"/><path d="M210.196 425.476C210.196 423.872 211.496 422.571 213.101 422.571 214.706 422.571 216.006 423.872 216.006 425.476 216.006 427.08 214.706 428.381 213.101 428.381 211.496 428.381 210.196 427.08 210.196 425.476Z" stroke="#172C51" stroke-width="1.33158" stroke-linecap="butt" stroke-linejoin="miter" stroke-miterlimit="8" stroke-opacity="1" fill="#4472C4" fill-rule="evenodd" fill-opacity="1" transform="matrix(1.00132 0 0 1 0 4.17053)"/><path d="M234.6 425.476C234.6 423.872 235.836 422.571 237.36 422.571 238.884 422.571 240.12 423.872 240.12 425.476 240.12 427.08 238.884 428.381 237.36 428.381 235.836 428.381 234.6 427.08 234.6 425.476Z" stroke="#172C51" stroke-width="1.33158" stroke-linecap="butt" stroke-linejoin="miter" stroke-miterlimit="8" stroke-opacity="1" fill="#4472C4" fill-rule="evenodd" fill-opacity="1" transform="matrix(1.00132 0 0 1 0 4.17053)"/><path d="M258.714 425.476C258.714 423.872 260.014 422.571 261.619 422.571 263.224 422.571 264.524 423.872 264.524 425.476 264.524 427.08 263.224 428.381 261.619 428.381 260.014 428.381 258.714 427.08 258.714 425.476Z" stroke="#172C51" stroke-width="1.33158" stroke-linecap="butt" stroke-linejoin="miter" stroke-miterlimit="8" stroke-opacity="1" fill="#4472C4" fill-rule="evenodd" fill-opacity="1" transform="matrix(1.00132 0 0 1 0 4.17053)"/><path d="M0 0 18.6086 0.223852" stroke="#000000" stroke-width="1.33158" stroke-linecap="butt" stroke-linejoin="miter" stroke-miterlimit="8" stroke-opacity="1" fill="none" fill-rule="evenodd" transform="matrix(1.00132 0 0 -1 191.855 382.805)"/><path d="M216.006 378.411 234.615 378.411" stroke="#000000" stroke-width="1.33158" stroke-linecap="butt" stroke-linejoin="miter" stroke-miterlimit="8" stroke-opacity="1" fill="none" fill-rule="evenodd" transform="matrix(1.00132 0 0 1 0 4.17053)"/><path d="M240.12 378.411 258.729 378.411" stroke="#000000" stroke-width="1.33158" stroke-linecap="butt" stroke-linejoin="miter" stroke-miterlimit="8" stroke-opacity="1" fill="none" fill-rule="evenodd" transform="matrix(1.00132 0 0 1 0 4.17053)"/><path d="M191.602 401.943 210.211 401.943" stroke="#000000" stroke-width="1.33158" stroke-linecap="butt" stroke-linejoin="miter" stroke-miterlimit="8" stroke-opacity="1" fill="none" fill-rule="evenodd" transform="matrix(1.00132 0 0 1 0 4.17053)"/><path d="M216.006 401.943 234.615 401.943" stroke="#000000" stroke-width="1.33158" stroke-linecap="butt" stroke-linejoin="miter" stroke-miterlimit="8" stroke-opacity="1" fill="none" fill-rule="evenodd" transform="matrix(1.00132 0 0 1 0 4.17053)"/><path d="M240.12 401.943 258.729 401.943" stroke="#000000" stroke-width="1.33158" stroke-linecap="butt" stroke-linejoin="miter" stroke-miterlimit="8" stroke-opacity="1" fill="none" fill-rule="evenodd" transform="matrix(1.00132 0 0 1 0 4.17053)"/><path d="M191.602 425.476 210.211 425.476" stroke="#000000" stroke-width="1.33158" stroke-linecap="butt" stroke-linejoin="miter" stroke-miterlimit="8" stroke-opacity="1" fill="none" fill-rule="evenodd" transform="matrix(1.00132 0 0 1 0 4.17053)"/><path d="M216.006 425.476 234.615 425.476" stroke="#000000" stroke-width="1.33158" stroke-linecap="butt" stroke-linejoin="miter" stroke-miterlimit="8" stroke-opacity="1" fill="none" fill-rule="evenodd" transform="matrix(1.00132 0 0 1 0 4.17053)"/><path d="M240.12 425.476 258.729 425.476" stroke="#000000" stroke-width="1.33158" stroke-linecap="butt" stroke-linejoin="miter" stroke-miterlimit="8" stroke-opacity="1" fill="none" fill-rule="evenodd" transform="matrix(1.00132 0 0 1 0 4.17053)"/><path d="M188.697 381.316 188.697 399.148" stroke="#000000" stroke-width="1.33158" stroke-linecap="butt" stroke-linejoin="miter" stroke-miterlimit="8" stroke-opacity="1" fill="none" fill-rule="evenodd" transform="matrix(1.00132 0 0 1 0 4.17053)"/><path d="M188.697 404.848 188.697 422.681" stroke="#000000" stroke-width="1.33158" stroke-linecap="butt" stroke-linejoin="miter" stroke-miterlimit="8" stroke-opacity="1" fill="none" fill-rule="evenodd" transform="matrix(1.00132 0 0 1 0 4.17053)"/><path d="M213.101 381.025 213.101 399.082" stroke="#000000" stroke-width="1.33158" stroke-linecap="butt" stroke-linejoin="miter" stroke-miterlimit="8" stroke-opacity="1" fill="none" fill-rule="evenodd" transform="matrix(1.00132 0 0 1 0 4.17053)"/><path d="M213.101 404.848 213.101 422.681" stroke="#000000" stroke-width="1.33158" stroke-linecap="butt" stroke-linejoin="miter" stroke-miterlimit="8" stroke-opacity="1" fill="none" fill-rule="evenodd" transform="matrix(1.00132 0 0 1 0 4.17053)"/><path d="M237.505 381.025 237.505 399.082" stroke="#000000" stroke-width="1.33158" stroke-linecap="butt" stroke-linejoin="miter" stroke-miterlimit="8" stroke-opacity="1" fill="none" fill-rule="evenodd" transform="matrix(1.00132 0 0 1 0 4.17053)"/><path d="M237.505 404.848 237.505 422.681" stroke="#000000" stroke-width="1.33158" stroke-linecap="butt" stroke-linejoin="miter" stroke-miterlimit="8" stroke-opacity="1" fill="none" fill-rule="evenodd" transform="matrix(1.00132 0 0 1 0 4.17053)"/><path d="M261.619 381.025 261.619 399.082" stroke="#000000" stroke-width="1.33158" stroke-linecap="butt" stroke-linejoin="miter" stroke-miterlimit="8" stroke-opacity="1" fill="none" fill-rule="evenodd" transform="matrix(1.00132 0 0 1 0 4.17053)"/><path d="M261.619 404.848 261.619 422.681" stroke="#000000" stroke-width="1.33158" stroke-linecap="butt" stroke-linejoin="miter" stroke-miterlimit="8" stroke-opacity="1" fill="none" fill-rule="evenodd" transform="matrix(1.00132 0 0 1 0 4.17053)"/><path d="M171.991 362.801 184.289 373.422 183.419 374.43 171.121 363.806ZM184.587 371.04 186.877 376.54 181.105 375.072Z" fill="#000000" fill-rule="nonzero" fill-opacity="1" transform="matrix(1.00132 0 0 1 0 4.17053)"/><path d="M0.514441-0.422643 12.408 14.0541 11.3791 14.8994-0.514441 0.422643ZM13.106 11.7573 14.4294 17.5634 8.99048 15.1385Z" fill="#000000" fill-rule="nonzero" fill-opacity="1" transform="matrix(-1.00132 0 0 1 205.43 363.116)"/><text fill="#000000" fill-opacity="1" font-family="Calibri,Calibri_MSFontService,sans-serif" font-style="normal" font-variant="normal" font-weight="400" font-stretch="normal" font-size="37" text-anchor="start" direction="ltr" writing-mode="lr-tb" unicode-bidi="normal" text-decoration="none" transform="matrix(0.290909 0 0 0.290526 112.213 389)">Mapping</text><text fill="#000000" fill-opacity="1" font-family="Calibri,Calibri_MSFontService,sans-serif" font-style="normal" font-variant="normal" font-weight="400" font-stretch="normal" font-size="37" text-anchor="start" direction="ltr" writing-mode="lr-tb" unicode-bidi="normal" text-decoration="none" transform="matrix(0.290909 0 0 0.290526 149.404 344)">b</text><text fill="#000000" fill-opacity="1" font-family="Calibri,Calibri_MSFontService,sans-serif" font-style="normal" font-variant="normal" font-weight="400" font-stretch="normal" font-size="24" text-anchor="start" direction="ltr" writing-mode="lr-tb" unicode-bidi="normal" text-decoration="none" transform="matrix(0.290909 0 0 0.290526 155.07 346)">1</text><text fill="#000000" fill-opacity="1" font-family="Calibri,Calibri_MSFontService,sans-serif" font-style="normal" font-variant="normal" font-weight="400" font-stretch="normal" font-size="37" text-anchor="start" direction="ltr" writing-mode="lr-tb" unicode-bidi="normal" text-decoration="none" transform="matrix(0.290909 0 0 0.290526 203.338 338)">b</text><text fill="#000000" fill-opacity="1" font-family="Calibri,Calibri_MSFontService,sans-serif" font-style="normal" font-variant="normal" font-weight="400" font-stretch="normal" font-size="24" text-anchor="start" direction="ltr" writing-mode="lr-tb" unicode-bidi="normal" text-decoration="none" transform="matrix(0.290909 0 0 0.290526 209.005 341)">2</text><text fill="#000000" fill-opacity="1" font-family="Calibri,Calibri_MSFontService,sans-serif" font-style="normal" font-variant="normal" font-weight="400" font-stretch="normal" font-size="37" text-anchor="start" direction="ltr" writing-mode="lr-tb" unicode-bidi="normal" text-decoration="none" transform="matrix(0.290909 0 0 0.290526 16.4781 372)">Initial </text><text fill="#000000" fill-opacity="1" font-family="Calibri,Calibri_MSFontService,sans-serif" font-style="normal" font-variant="normal" font-weight="400" font-stretch="normal" font-size="37" text-anchor="start" direction="ltr" writing-mode="lr-tb" unicode-bidi="normal" text-decoration="none" transform="matrix(0.290909 0 0 0.290526 43.3114 372)">metacells</text><path d="M106.768 397.15 158.482 397.15 158.482 392.356 168.069 401.943 158.482 411.531 158.482 406.737 106.768 406.737Z" stroke="#172C51" stroke-width="1.33158" stroke-linecap="butt" stroke-linejoin="miter" stroke-miterlimit="8" stroke-opacity="1" fill="#4472C4" fill-rule="evenodd" fill-opacity="0.2" transform="matrix(1.00132 0 0 1 0 4.17053)"/><text fill="#000000" fill-opacity="1" font-family="Calibri,Calibri_MSFontService,sans-serif" font-style="normal" font-variant="normal" font-weight="400" font-stretch="normal" font-size="37" text-anchor="start" direction="ltr" writing-mode="lr-tb" unicode-bidi="normal" text-decoration="none" transform="matrix(0.290909 0 0 0.290526 274.041 389)">Self</text><text fill="#000000" fill-opacity="1" font-family="Calibri,Calibri_MSFontService,sans-serif" font-style="normal" font-variant="normal" font-weight="400" font-stretch="normal" font-size="37" text-anchor="start" direction="ltr" writing-mode="lr-tb" unicode-bidi="normal" text-decoration="none" transform="matrix(0.290909 0 0 0.290526 290.041 389)">-</text><text fill="#000000" fill-opacity="1" font-family="Calibri,Calibri_MSFontService,sans-serif" font-style="normal" font-variant="normal" font-weight="400" font-stretch="normal" font-size="37" text-anchor="start" direction="ltr" writing-mode="lr-tb" unicode-bidi="normal" text-decoration="none" transform="matrix(0.290909 0 0 0.290526 293.373 389)">organizing</text><path d="M280.213 396.568 331.926 396.568 331.926 391.775 341.514 401.362 331.926 410.949 331.926 406.156 280.213 406.156Z" stroke="#172C51" stroke-width="1.33158" stroke-linecap="butt" stroke-linejoin="miter" stroke-miterlimit="8" stroke-opacity="1" fill="#4472C4" fill-rule="evenodd" fill-opacity="0.2" transform="matrix(1.00132 0 0 1 0 4.17053)"/><path d="M345.291 365.456C348.167 361.577 351.043 357.699 353.114 353.475 355.186 349.25 355.723 343.797 357.716 340.11 359.709 336.421 362.243 331.122 365.081 331.354 367.917 331.583 372.06 337.728 374.744 341.49 377.429 345.256 379.424 350.479 381.188 353.937 382.951 357.391 382.643 360.235 385.328 362.231 388.012 364.227 392.655 365.072 397.295 365.918" stroke="#172C51" stroke-width="1.33158" stroke-linecap="butt" stroke-linejoin="miter" stroke-miterlimit="8" stroke-opacity="1" fill="#ED7D31" fill-rule="evenodd" fill-opacity="0.0980392" transform="matrix(1.00132 0 0 1 0 4.17053)"/><text fill="#000000" fill-opacity="1" font-family="Calibri,Calibri_MSFontService,sans-serif" font-style="normal" font-variant="normal" font-weight="400" font-stretch="normal" font-size="37" text-anchor="start" direction="ltr" writing-mode="lr-tb" unicode-bidi="normal" text-decoration="none" transform="matrix(0.290909 0 0 0.290526 389.117 350)">Distribution model of </text><text fill="#000000" fill-opacity="1" font-family="Cambria Math,Cambria Math_MSFontService,sans-serif" font-style="normal" font-variant="normal" font-weight="400" font-stretch="normal" font-size="37" text-anchor="start" direction="ltr" writing-mode="lr-tb" unicode-bidi="normal" text-decoration="none" transform="matrix(0.290909 0 0 0.290526 410.444 363)">ğ‘–</text><text fill="#000000" fill-opacity="1" font-family="Calibri,Calibri_MSFontService,sans-serif" font-style="normal" font-variant="normal" font-weight="400" font-stretch="normal" font-size="37" text-anchor="start" direction="ltr" writing-mode="lr-tb" unicode-bidi="normal" text-decoration="none" transform="matrix(0.290909 0 0 0.290526 414.115 363)">th</text><text fill="#000000" fill-opacity="1" font-family="Calibri,Calibri_MSFontService,sans-serif" font-style="normal" font-variant="normal" font-weight="400" font-stretch="normal" font-size="37" text-anchor="start" direction="ltr" writing-mode="lr-tb" unicode-bidi="normal" text-decoration="none" transform="matrix(0.290909 0 0 0.290526 425.617 363)">metacell</text><path d="M513.215 363.713C516.091 359.834 518.967 355.956 521.039 351.732 523.11 347.507 523.648 342.054 525.641 338.364 527.634 334.678 530.167 329.378 533.005 329.608 535.841 329.84 539.984 335.985 542.668 339.747 545.353 343.513 547.349 348.736 549.112 352.193 550.876 355.648 550.568 358.492 553.252 360.488 555.937 362.484 560.579 363.329 565.219 364.175" stroke="#172C51" stroke-width="1.33158" stroke-linecap="butt" stroke-linejoin="miter" stroke-miterlimit="8" stroke-opacity="1" fill="#ED7D31" fill-rule="evenodd" fill-opacity="0.0980392" transform="matrix(1.00132 0 0 1 0 4.17053)"/><path d="M549.821 363.713C552.715 359.834 555.605 355.956 557.689 351.732 559.772 347.507 560.312 342.054 562.317 338.364 564.321 334.678 566.866 329.378 569.722 329.608 572.575 329.84 576.741 335.985 579.44 339.747 582.139 343.513 584.144 348.736 585.919 352.193 587.691 355.648 587.383 358.492 590.082 360.488 592.784 362.484 597.45 363.329 602.116 364.175" stroke="#172C51" stroke-width="1.33158" stroke-linecap="butt" stroke-linejoin="miter" stroke-miterlimit="8" stroke-opacity="1" fill="#70AD47" fill-rule="evenodd" fill-opacity="0.4" transform="matrix(1.00132 0 0 1 0 4.17053)"/><path d="M532.971 328.937 563.031 328.937 563.031 330.267 532.971 330.267ZM561.701 326.938 569.69 329.602 561.701 332.266Z" fill="#000000" fill-rule="nonzero" fill-opacity="1" transform="matrix(1.00132 0 0 1 0 4.17053)"/><text fill="#000000" fill-opacity="1" font-family="Calibri,Calibri_MSFontService,sans-serif" font-style="normal" font-variant="normal" font-weight="400" font-stretch="normal" font-size="37" text-anchor="start" direction="ltr" writing-mode="lr-tb" unicode-bidi="normal" text-decoration="none" transform="matrix(0.290909 0 0 0.290526 543.151 328)">+b</text><text fill="#000000" fill-opacity="1" font-family="Calibri,Calibri_MSFontService,sans-serif" font-style="normal" font-variant="normal" font-weight="400" font-stretch="normal" font-size="24" text-anchor="start" direction="ltr" writing-mode="lr-tb" unicode-bidi="normal" text-decoration="none" transform="matrix(0.290909 0 0 0.290526 554.15 331)">1</text><path d="M514.958 439.54C517.852 435.662 520.742 431.783 522.825 427.559 524.908 423.335 525.449 417.881 527.453 414.195 529.458 410.505 532.003 405.206 534.859 405.438 537.712 405.668 541.878 411.812 544.577 415.575 547.276 419.34 549.281 424.564 551.056 428.021 552.828 431.475 552.52 434.319 555.219 436.315 557.921 438.311 562.587 439.157 567.253 440.002" stroke="#172C51" stroke-width="1.33158" stroke-linecap="butt" stroke-linejoin="miter" stroke-miterlimit="8" stroke-opacity="1" fill="#FFC000" fill-rule="evenodd" fill-opacity="0.4" transform="matrix(1.00132 0 0 1 0 4.17053)"/><path d="M551.855 439.54C554.731 435.662 557.607 431.783 559.679 427.559 561.75 423.335 562.288 417.881 564.281 414.195 566.274 410.505 568.807 405.206 571.645 405.438 574.481 405.668 578.624 411.812 581.308 415.575 583.993 419.34 585.989 424.564 587.752 428.021 589.516 431.475 589.208 434.319 591.892 436.315 594.577 438.311 599.219 439.157 603.859 440.002" stroke="#172C51" stroke-width="1.33158" stroke-linecap="butt" stroke-linejoin="miter" stroke-miterlimit="8" stroke-opacity="1" fill="#ED7D31" fill-rule="evenodd" fill-opacity="0.0980392" transform="matrix(1.00132 0 0 1 0 4.17053)"/><path d="M1.90107e-06-0.66579 30.0619-0.665703 30.0619 0.665875-1.90107e-06 0.66579ZM28.7304-2.66307 36.7199 0.000104849 28.7304 2.66324Z" fill="#000000" fill-rule="nonzero" fill-opacity="1" transform="matrix(-1.00132 0 0 1 572.477 409.6)"/><text fill="#000000" fill-opacity="1" font-family="Calibri,Calibri_MSFontService,sans-serif" font-style="normal" font-variant="normal" font-weight="400" font-stretch="normal" font-size="37" text-anchor="start" direction="ltr" writing-mode="lr-tb" unicode-bidi="normal" text-decoration="none" transform="matrix(0.290909 0 0 0.290526 549.873 405)">+b</text><text fill="#000000" fill-opacity="1" font-family="Calibri,Calibri_MSFontService,sans-serif" font-style="normal" font-variant="normal" font-weight="400" font-stretch="normal" font-size="24" text-anchor="start" direction="ltr" writing-mode="lr-tb" unicode-bidi="normal" text-decoration="none" transform="matrix(0.290909 0 0 0.290526 560.873 407)">2</text><path d="M681.72 342.531C681.72 341.005 683.022 339.771 684.625 339.771 686.229 339.771 687.531 341.005 687.531 342.531 687.531 344.056 686.229 345.291 684.625 345.291 683.022 345.291 681.72 344.056 681.72 342.531Z" stroke="#172C51" stroke-width="1.33158" stroke-linecap="butt" stroke-linejoin="miter" stroke-miterlimit="8" stroke-opacity="1" fill="#70AD47" fill-rule="evenodd" fill-opacity="1" transform="matrix(1.00132 0 0 1 0 4.17053)"/><path d="M672.714 356.331C672.714 354.727 674.015 353.425 675.619 353.425 677.223 353.425 678.524 354.727 678.524 356.331 678.524 357.934 677.223 359.236 675.619 359.236 674.015 359.236 672.714 357.934 672.714 356.331Z" stroke="#172C51" stroke-width="1.33158" stroke-linecap="butt" stroke-linejoin="miter" stroke-miterlimit="8" stroke-opacity="1" fill="#70AD47" fill-rule="evenodd" fill-opacity="1" transform="matrix(1.00132 0 0 1 0 4.17053)"/><path d="M697.99 348.196C697.99 346.592 699.291 345.291 700.895 345.291 702.498 345.291 703.8 346.592 703.8 348.196 703.8 349.8 702.498 351.101 700.895 351.101 699.291 351.101 697.99 349.8 697.99 348.196Z" stroke="#172C51" stroke-width="1.33158" stroke-linecap="butt" stroke-linejoin="miter" stroke-miterlimit="8" stroke-opacity="1" fill="#70AD47" fill-rule="evenodd" fill-opacity="1" transform="matrix(1.00132 0 0 1 0 4.17053)"/><path d="M687.531 355.749C687.531 354.146 688.765 352.844 690.291 352.844 691.816 352.844 693.051 354.146 693.051 355.749 693.051 357.353 691.816 358.655 690.291 358.655 688.765 358.655 687.531 357.353 687.531 355.749Z" stroke="#172C51" stroke-width="1.33158" stroke-linecap="butt" stroke-linejoin="miter" stroke-miterlimit="8" stroke-opacity="1" fill="#70AD47" fill-rule="evenodd" fill-opacity="1" transform="matrix(1.00132 0 0 1 0 4.17053)"/><path d="M670.971 345.436C670.971 343.911 672.272 342.676 673.876 342.676 675.48 342.676 676.781 343.911 676.781 345.436 676.781 346.961 675.48 348.196 673.876 348.196 672.272 348.196 670.971 346.961 670.971 345.436Z" stroke="#172C51" stroke-width="1.33158" stroke-linecap="butt" stroke-linejoin="miter" stroke-miterlimit="8" stroke-opacity="1" fill="#70AD47" fill-rule="evenodd" fill-opacity="1" transform="matrix(1.00132 0 0 1 0 4.17053)"/><path d="M691.017 339.771C691.017 338.167 692.318 336.865 693.922 336.865 695.526 336.865 696.827 338.167 696.827 339.771 696.827 341.374 695.526 342.676 693.922 342.676 692.318 342.676 691.017 341.374 691.017 339.771Z" stroke="#172C51" stroke-width="1.33158" stroke-linecap="butt" stroke-linejoin="miter" stroke-miterlimit="8" stroke-opacity="1" fill="#70AD47" fill-rule="evenodd" fill-opacity="1" transform="matrix(1.00132 0 0 1 0 4.17053)"/><path d="M692.469 409.642C692.469 408.117 693.704 406.882 695.229 406.882 696.755 406.882 697.99 408.117 697.99 409.642 697.99 411.167 696.755 412.402 695.229 412.402 693.704 412.402 692.469 411.167 692.469 409.642Z" stroke="#172C51" stroke-width="1.33158" stroke-linecap="butt" stroke-linejoin="miter" stroke-miterlimit="8" stroke-opacity="1" fill="#FFC000" fill-rule="evenodd" fill-opacity="1" transform="matrix(1.00132 0 0 1 0 4.17053)"/><path d="M683.173 423.733C683.173 422.129 684.474 420.827 686.078 420.827 687.682 420.827 688.983 422.129 688.983 423.733 688.983 425.336 687.682 426.638 686.078 426.638 684.474 426.638 683.173 425.336 683.173 423.733Z" stroke="#172C51" stroke-width="1.33158" stroke-linecap="butt" stroke-linejoin="miter" stroke-miterlimit="8" stroke-opacity="1" fill="#FFC000" fill-rule="evenodd" fill-opacity="1" transform="matrix(1.00132 0 0 1 0 4.17053)"/><path d="M692.469 433.756C692.469 432.231 693.704 430.996 695.229 430.996 696.755 430.996 697.99 432.231 697.99 433.756 697.99 435.281 696.755 436.516 695.229 436.516 693.704 436.516 692.469 435.281 692.469 433.756Z" stroke="#172C51" stroke-width="1.33158" stroke-linecap="butt" stroke-linejoin="miter" stroke-miterlimit="8" stroke-opacity="1" fill="#FFC000" fill-rule="evenodd" fill-opacity="1" transform="matrix(1.00132 0 0 1 0 4.17053)"/><path d="M679.977 435.644C679.977 434.041 681.278 432.739 682.882 432.739 684.486 432.739 685.787 434.041 685.787 435.644 685.787 437.248 684.486 438.549 682.882 438.549 681.278 438.549 679.977 437.248 679.977 435.644Z" stroke="#172C51" stroke-width="1.33158" stroke-linecap="butt" stroke-linejoin="miter" stroke-miterlimit="8" stroke-opacity="1" fill="#FFC000" fill-rule="evenodd" fill-opacity="1" transform="matrix(1.00132 0 0 1 0 4.17053)"/><path d="M695.084 421.699C695.084 420.095 696.386 418.794 697.99 418.794 699.593 418.794 700.895 420.095 700.895 421.699 700.895 423.303 699.593 424.604 697.99 424.604 696.386 424.604 695.084 423.303 695.084 421.699Z" stroke="#172C51" stroke-width="1.33158" stroke-linecap="butt" stroke-linejoin="miter" stroke-miterlimit="8" stroke-opacity="1" fill="#FFC000" fill-rule="evenodd" fill-opacity="1" transform="matrix(1.00132 0 0 1 0 4.17053)"/><path d="M352.554 378.411C352.554 376.807 353.855 375.505 355.459 375.505 357.063 375.505 358.364 376.807 358.364 378.411 358.364 380.014 357.063 381.316 355.459 381.316 353.855 381.316 352.554 380.014 352.554 378.411Z" stroke="#172C51" stroke-width="1.33158" stroke-linecap="butt" stroke-linejoin="miter" stroke-miterlimit="8" stroke-opacity="1" fill="#4472C4" fill-rule="evenodd" fill-opacity="1" transform="matrix(1.00132 0 0 1 0 4.17053)"/><path d="M369.985 378.265C369.985 376.74 371.287 375.505 372.891 375.505 374.494 375.505 375.796 376.74 375.796 378.265 375.796 379.791 374.494 381.025 372.891 381.025 371.287 381.025 369.985 379.791 369.985 378.265Z" stroke="#172C51" stroke-width="1.33158" stroke-linecap="butt" stroke-linejoin="miter" stroke-miterlimit="8" stroke-opacity="1" fill="#4472C4" fill-rule="evenodd" fill-opacity="1" transform="matrix(1.00132 0 0 1 0 4.17053)"/><path d="M352.554 394.971C352.554 393.367 353.855 392.065 355.459 392.065 357.063 392.065 358.364 393.367 358.364 394.971 358.364 396.574 357.063 397.876 355.459 397.876 353.855 397.876 352.554 396.574 352.554 394.971Z" stroke="#172C51" stroke-width="1.33158" stroke-linecap="butt" stroke-linejoin="miter" stroke-miterlimit="8" stroke-opacity="1" fill="#4472C4" fill-rule="evenodd" fill-opacity="1" transform="matrix(1.00132 0 0 1 0 4.17053)"/><path d="M376.958 401.943C376.958 400.339 378.193 399.038 379.718 399.038 381.243 399.038 382.478 400.339 382.478 401.943 382.478 403.547 381.243 404.848 379.718 404.848 378.193 404.848 376.958 403.547 376.958 401.943Z" stroke="#172C51" stroke-width="1.33158" stroke-linecap="butt" stroke-linejoin="miter" stroke-miterlimit="8" stroke-opacity="1" fill="#4472C4" fill-rule="evenodd" fill-opacity="1" transform="matrix(1.00132 0 0 1 0 4.17053)"/><path d="M405.72 384.221C405.72 382.617 407.022 381.316 408.625 381.316 410.229 381.316 411.531 382.617 411.531 384.221 411.531 385.825 410.229 387.126 408.625 387.126 407.022 387.126 405.72 385.825 405.72 384.221Z" stroke="#172C51" stroke-width="1.33158" stroke-linecap="butt" stroke-linejoin="miter" stroke-miterlimit="8" stroke-opacity="1" fill="#4472C4" fill-rule="evenodd" fill-opacity="1" transform="matrix(1.00132 0 0 1 0 4.17053)"/><path d="M405.43 406.156C405.43 404.631 406.664 403.396 408.189 403.396 409.715 403.396 410.949 404.631 410.949 406.156 410.949 407.681 409.715 408.916 408.189 408.916 406.664 408.916 405.43 407.681 405.43 406.156Z" stroke="#172C51" stroke-width="1.33158" stroke-linecap="butt" stroke-linejoin="miter" stroke-miterlimit="8" stroke-opacity="1" fill="#4472C4" fill-rule="evenodd" fill-opacity="1" transform="matrix(1.00132 0 0 1 0 4.17053)"/><path d="M425.476 378.265C425.476 376.74 426.711 375.505 428.236 375.505 429.761 375.505 430.996 376.74 430.996 378.265 430.996 379.791 429.761 381.025 428.236 381.025 426.711 381.025 425.476 379.791 425.476 378.265Z" stroke="#172C51" stroke-width="1.33158" stroke-linecap="butt" stroke-linejoin="miter" stroke-miterlimit="8" stroke-opacity="1" fill="#4472C4" fill-rule="evenodd" fill-opacity="1" transform="matrix(1.00132 0 0 1 0 4.17053)"/><path d="M425.476 401.943C425.476 400.339 426.711 399.038 428.236 399.038 429.761 399.038 430.996 400.339 430.996 401.943 430.996 403.547 429.761 404.848 428.236 404.848 426.711 404.848 425.476 403.547 425.476 401.943Z" stroke="#172C51" stroke-width="1.33158" stroke-linecap="butt" stroke-linejoin="miter" stroke-miterlimit="8" stroke-opacity="1" fill="#4472C4" fill-rule="evenodd" fill-opacity="1" transform="matrix(1.00132 0 0 1 0 4.17053)"/><path d="M352.554 425.476C352.554 423.872 353.855 422.571 355.459 422.571 357.063 422.571 358.364 423.872 358.364 425.476 358.364 427.08 357.063 428.381 355.459 428.381 353.855 428.381 352.554 427.08 352.554 425.476Z" stroke="#172C51" stroke-width="1.33158" stroke-linecap="butt" stroke-linejoin="miter" stroke-miterlimit="8" stroke-opacity="1" fill="#4472C4" fill-rule="evenodd" fill-opacity="1" transform="matrix(1.00132 0 0 1 0 4.17053)"/><path d="M373.181 425.476C373.181 423.872 374.483 422.571 376.086 422.571 377.69 422.571 378.992 423.872 378.992 425.476 378.992 427.08 377.69 428.381 376.086 428.381 374.483 428.381 373.181 427.08 373.181 425.476Z" stroke="#172C51" stroke-width="1.33158" stroke-linecap="butt" stroke-linejoin="miter" stroke-miterlimit="8" stroke-opacity="1" fill="#4472C4" fill-rule="evenodd" fill-opacity="1" transform="matrix(1.00132 0 0 1 0 4.17053)"/><path d="M401.072 425.476C401.072 423.872 402.373 422.571 403.977 422.571 405.581 422.571 406.882 423.872 406.882 425.476 406.882 427.08 405.581 428.381 403.977 428.381 402.373 428.381 401.072 427.08 401.072 425.476Z" stroke="#172C51" stroke-width="1.33158" stroke-linecap="butt" stroke-linejoin="miter" stroke-miterlimit="8" stroke-opacity="1" fill="#4472C4" fill-rule="evenodd" fill-opacity="1" transform="matrix(1.00132 0 0 1 0 4.17053)"/><path d="M425.476 425.476C425.476 423.872 426.711 422.571 428.236 422.571 429.761 422.571 430.996 423.872 430.996 425.476 430.996 427.08 429.761 428.381 428.236 428.381 426.711 428.381 425.476 427.08 425.476 425.476Z" stroke="#172C51" stroke-width="1.33158" stroke-linecap="butt" stroke-linejoin="miter" stroke-miterlimit="8" stroke-opacity="1" fill="#4472C4" fill-rule="evenodd" fill-opacity="1" transform="matrix(1.00132 0 0 1 0 4.17053)"/><path d="M0 0 11.6949 0.223852" stroke="#000000" stroke-width="1.33158" stroke-linecap="butt" stroke-linejoin="miter" stroke-miterlimit="8" stroke-opacity="1" fill="none" fill-rule="evenodd" transform="matrix(1.00132 0 0 -1 358.836 382.514)"/><path d="M375.796 378.12 405.926 384.111" stroke="#000000" stroke-width="1.33158" stroke-linecap="butt" stroke-linejoin="miter" stroke-miterlimit="8" stroke-opacity="1" fill="none" fill-rule="evenodd" transform="matrix(1.00132 0 0 1 0 4.17053)"/><path d="M0 0 13.9995 5.9919" stroke="#000000" stroke-width="1.33158" stroke-linecap="butt" stroke-linejoin="miter" stroke-miterlimit="8" stroke-opacity="1" fill="none" fill-rule="evenodd" transform="matrix(1.00132 0 0 -1 412.073 388.281)"/><path d="M358.364 394.971 376.972 401.885" stroke="#000000" stroke-width="1.33158" stroke-linecap="butt" stroke-linejoin="miter" stroke-miterlimit="8" stroke-opacity="1" fill="none" fill-rule="evenodd" transform="matrix(1.00132 0 0 1 0 4.17053)"/><path d="M382.478 401.943 405.235 406.092" stroke="#000000" stroke-width="1.33158" stroke-linecap="butt" stroke-linejoin="miter" stroke-miterlimit="8" stroke-opacity="1" fill="none" fill-rule="evenodd" transform="matrix(1.00132 0 0 1 0 4.17053)"/><path d="M0 0 14.4604 4.14822" stroke="#000000" stroke-width="1.33158" stroke-linecap="butt" stroke-linejoin="miter" stroke-miterlimit="8" stroke-opacity="1" fill="none" fill-rule="evenodd" transform="matrix(1.00132 0 0 -1 411.491 410.262)"/><path d="M358.364 425.476 373.286 425.476" stroke="#000000" stroke-width="1.33158" stroke-linecap="butt" stroke-linejoin="miter" stroke-miterlimit="8" stroke-opacity="1" fill="none" fill-rule="evenodd" transform="matrix(1.00132 0 0 1 0 4.17053)"/><path d="M378.992 425.476 401.287 425.476" stroke="#000000" stroke-width="1.33158" stroke-linecap="butt" stroke-linejoin="miter" stroke-miterlimit="8" stroke-opacity="1" fill="none" fill-rule="evenodd" transform="matrix(1.00132 0 0 1 0 4.17053)"/><path d="M406.882 425.476 425.49 425.476" stroke="#000000" stroke-width="1.33158" stroke-linecap="butt" stroke-linejoin="miter" stroke-miterlimit="8" stroke-opacity="1" fill="none" fill-rule="evenodd" transform="matrix(1.00132 0 0 1 0 4.17053)"/><path d="M355.459 381.316 355.459 392.234" stroke="#000000" stroke-width="1.33158" stroke-linecap="butt" stroke-linejoin="miter" stroke-miterlimit="8" stroke-opacity="1" fill="none" fill-rule="evenodd" transform="matrix(1.00132 0 0 1 0 4.17053)"/><path d="M355.459 397.876 355.459 422.62" stroke="#000000" stroke-width="1.33158" stroke-linecap="butt" stroke-linejoin="miter" stroke-miterlimit="8" stroke-opacity="1" fill="none" fill-rule="evenodd" transform="matrix(1.00132 0 0 1 0 4.17053)"/><path d="M372.891 381.025 379.805 399.082" stroke="#000000" stroke-width="1.33158" stroke-linecap="butt" stroke-linejoin="miter" stroke-miterlimit="8" stroke-opacity="1" fill="none" fill-rule="evenodd" transform="matrix(1.00132 0 0 1 0 4.17053)"/><path d="M0 0 3.68733 17.8311" stroke="#000000" stroke-width="1.33158" stroke-linecap="butt" stroke-linejoin="miter" stroke-miterlimit="8" stroke-opacity="1" fill="none" fill-rule="evenodd" transform="matrix(-1.00132 0 0 1 380.273 409.019)"/><path d="M0 0 0.460914 16.2113" stroke="#000000" stroke-width="1.33158" stroke-linecap="butt" stroke-linejoin="miter" stroke-miterlimit="8" stroke-opacity="1" fill="none" fill-rule="evenodd" transform="matrix(-1.00132 0 0 1 409.044 391.297)"/><path d="M0 0 4.14822 13.6829" stroke="#000000" stroke-width="1.33158" stroke-linecap="butt" stroke-linejoin="miter" stroke-miterlimit="8" stroke-opacity="1" fill="none" fill-rule="evenodd" transform="matrix(-1.00132 0 0 1 408.663 413.086)"/><path d="M428.381 381.025 428.381 399.082" stroke="#000000" stroke-width="1.33158" stroke-linecap="butt" stroke-linejoin="miter" stroke-miterlimit="8" stroke-opacity="1" fill="none" fill-rule="evenodd" transform="matrix(1.00132 0 0 1 0 4.17053)"/><path d="M428.381 404.848 428.381 422.681" stroke="#000000" stroke-width="1.33158" stroke-linecap="butt" stroke-linejoin="miter" stroke-miterlimit="8" stroke-opacity="1" fill="none" fill-rule="evenodd" transform="matrix(1.00132 0 0 1 0 4.17053)"/><text fill="#000000" fill-opacity="1" font-family="Cambria Math,Cambria Math_MSFontService,sans-serif" font-style="normal" font-variant="normal" font-weight="400" font-stretch="normal" font-size="37" text-anchor="start" direction="ltr" writing-mode="lr-tb" unicode-bidi="normal" text-decoration="none" transform="matrix(0.290909 0 0 0.290526 344.358 381)">ğ‘–</text><text fill="#000000" fill-opacity="1" font-family="Calibri,Calibri_MSFontService,sans-serif" font-style="normal" font-variant="normal" font-weight="400" font-stretch="normal" font-size="37" text-anchor="start" direction="ltr" writing-mode="lr-tb" unicode-bidi="normal" text-decoration="none" transform="matrix(0.290909 0 0 0.290526 447.892 389)">Augmenting</text><path d="M446.684 396.568 498.398 396.568 498.398 391.775 507.985 401.362 498.398 410.949 498.398 406.156 446.684 406.156Z" stroke="#172C51" stroke-width="1.33158" stroke-linecap="butt" stroke-linejoin="miter" stroke-miterlimit="8" stroke-opacity="1" fill="#4472C4" fill-rule="evenodd" fill-opacity="0.2" transform="matrix(1.00132 0 0 1 0 4.17053)"/><text fill="#000000" fill-opacity="1" font-family="Calibri,Calibri_MSFontService,sans-serif" font-style="normal" font-variant="normal" font-weight="400" font-stretch="normal" font-size="37" text-anchor="start" direction="ltr" writing-mode="lr-tb" unicode-bidi="normal" text-decoration="none" transform="matrix(0.290909 0 0 0.290526 596.538 389)">Reconstructing</text><path d="M600.082 396.568 651.796 396.568 651.796 391.775 661.383 401.362 651.796 410.949 651.796 406.156 600.082 406.156Z" stroke="#172C51" stroke-width="1.33158" stroke-linecap="butt" stroke-linejoin="miter" stroke-miterlimit="8" stroke-opacity="1" fill="#4472C4" fill-rule="evenodd" fill-opacity="0.2" transform="matrix(1.00132 0 0 1 0 4.17053)"/><path d="M553.124 0 542.049 13.8317 547.703 13.8317 547.703 31.8126 82.3938 31.8126 81.5205 31.8126 10.8414 31.8126 10.8414 13.8317 0 13.8317 0 42.4168 81.5205 42.4168 82.3938 42.4168 558.546 42.4168 558.546 13.8317 564.202 13.8317Z" stroke="#172C51" stroke-width="1.33158" stroke-linecap="butt" stroke-linejoin="miter" stroke-miterlimit="8" stroke-opacity="1" fill="#4472C4" fill-rule="evenodd" fill-opacity="0.2" transform="matrix(-1.00132 0 0 1 696.873 443.301)"/><text fill="#000000" fill-opacity="1" font-family="Calibri,Calibri_MSFontService,sans-serif" font-style="normal" font-variant="normal" font-weight="400" font-stretch="normal" font-size="37" text-anchor="start" direction="ltr" writing-mode="lr-tb" unicode-bidi="normal" text-decoration="none" transform="matrix(0.290909 0 0 0.290526 670.452 332)">Batch b</text><text fill="#000000" fill-opacity="1" font-family="Calibri,Calibri_MSFontService,sans-serif" font-style="normal" font-variant="normal" font-weight="400" font-stretch="normal" font-size="24" text-anchor="start" direction="ltr" writing-mode="lr-tb" unicode-bidi="normal" text-decoration="none" transform="matrix(0.290909 0 0 0.290526 703.119 334)">1</text><text fill="#000000" fill-opacity="1" font-family="Calibri,Calibri_MSFontService,sans-serif" font-style="normal" font-variant="normal" font-weight="400" font-stretch="normal" font-size="37" text-anchor="start" direction="ltr" writing-mode="lr-tb" unicode-bidi="normal" text-decoration="none" transform="matrix(0.290909 0 0 0.290526 671.401 402)">Batch b</text><text fill="#000000" fill-opacity="1" font-family="Calibri,Calibri_MSFontService,sans-serif" font-style="normal" font-variant="normal" font-weight="400" font-stretch="normal" font-size="24" text-anchor="start" direction="ltr" writing-mode="lr-tb" unicode-bidi="normal" text-decoration="none" transform="matrix(0.290909 0 0 0.290526 704.067 404)">2</text><text fill="#000000" fill-opacity="1" font-family="Calibri,Calibri_MSFontService,sans-serif" font-style="normal" font-variant="normal" font-weight="400" font-stretch="normal" font-size="46" text-anchor="start" direction="ltr" writing-mode="lr-tb" unicode-bidi="normal" text-decoration="none" transform="matrix(0.290909 0 0 0.290526 352.951 525)">SOM</text><text fill="#000000" fill-opacity="1" font-family="Calibri,Calibri_MSFontService,sans-serif" font-style="normal" font-variant="normal" font-weight="400" font-stretch="normal" font-size="46" text-anchor="start" direction="ltr" writing-mode="lr-tb" unicode-bidi="normal" text-decoration="none" transform="matrix(0.290909 0 0 0.290526 360.62 541)">of</text><text fill="#000000" fill-opacity="1" font-family="Calibri,Calibri_MSFontService,sans-serif" font-style="normal" font-variant="normal" font-weight="400" font-stretch="normal" font-size="46" text-anchor="start" direction="ltr" writing-mode="lr-tb" unicode-bidi="normal" text-decoration="none" transform="matrix(0.290909 0 0 0.290526 339.951 557)">Metacells</text><path d="M305.198 624.632 305.198 613.882 358.823 613.882 358.823 597.758 353.463 597.758 364.186 587.008 374.913 597.758 369.549 597.758 369.549 613.882 423.175 613.882 423.175 608.507 433.901 619.257 423.175 630.006 423.175 624.632 305.198 624.632Z" stroke="#172C51" stroke-width="1.33158" stroke-linecap="butt" stroke-linejoin="miter" stroke-miterlimit="8" stroke-opacity="1" fill="#4472C4" fill-rule="evenodd" fill-opacity="0.2" transform="matrix(1.00132 0 0 1 0 4.17053)"/><path d="M37.6232 673.876 113.265 673.876" stroke="#000000" stroke-width="1.99737" stroke-linecap="butt" stroke-linejoin="miter" stroke-miterlimit="8" stroke-opacity="1" fill="none" fill-rule="evenodd" transform="matrix(1.00132 0 0 1 0 4.17053)"/><path d="M105.606 682.011 181.249 682.011" stroke="#000000" stroke-width="1.99737" stroke-linecap="butt" stroke-linejoin="miter" stroke-miterlimit="8" stroke-opacity="1" fill="none" fill-rule="evenodd" transform="matrix(1.00132 0 0 1 0 4.17053)"/><path d="M200.027 690.145 275.67 690.145" stroke="#000000" stroke-width="1.99737" stroke-linecap="butt" stroke-linejoin="miter" stroke-miterlimit="8" stroke-opacity="1" fill="none" fill-rule="evenodd" transform="matrix(1.00132 0 0 1 0 4.17053)"/><path d="M37.6232 550.402 98.3432 550.402 98.3432 610.832 37.6232 610.832Z" stroke="#172C51" stroke-width="1.33158" stroke-linecap="butt" stroke-linejoin="miter" stroke-miterlimit="8" stroke-opacity="1" fill="none" fill-rule="nonzero" transform="matrix(1.00132 0 0 1 0 4.17053)"/><path d="M126.234 550.402 186.954 550.402 186.954 610.832 126.234 610.832Z" stroke="#172C51" stroke-width="1.33158" stroke-linecap="butt" stroke-linejoin="miter" stroke-miterlimit="8" stroke-opacity="1" fill="none" fill-rule="nonzero" transform="matrix(1.00132 0 0 1 0 4.17053)"/><path d="M215.135 550.112 275.855 550.112 275.855 610.541 215.135 610.541Z" stroke="#172C51" stroke-width="1.33158" stroke-linecap="butt" stroke-linejoin="miter" stroke-miterlimit="8" stroke-opacity="1" fill="none" fill-rule="nonzero" transform="matrix(1.00132 0 0 1 0 4.17053)"/><path d="M50.6968 568.851C50.6968 567.325 51.9325 566.091 53.4568 566.091 54.9812 566.091 56.2168 567.325 56.2168 568.851 56.2168 570.376 54.9812 571.611 53.4568 571.611 51.9325 571.611 50.6968 570.376 50.6968 568.851Z" stroke="#172C51" stroke-width="1.33158" stroke-linecap="butt" stroke-linejoin="miter" stroke-miterlimit="8" stroke-opacity="1" fill="#BC607D" fill-rule="evenodd" fill-opacity="1" transform="matrix(1.00132 0 0 1 0 4.17053)"/><path d="M47.7916 580.326C47.7916 578.723 49.0272 577.421 50.5516 577.421 52.076 577.421 53.3116 578.723 53.3116 580.326 53.3116 581.93 52.076 583.232 50.5516 583.232 49.0272 583.232 47.7916 581.93 47.7916 580.326Z" stroke="#172C51" stroke-width="1.33158" stroke-linecap="butt" stroke-linejoin="miter" stroke-miterlimit="8" stroke-opacity="1" fill="#BC607D" fill-rule="evenodd" fill-opacity="1" transform="matrix(1.00132 0 0 1 0 4.17053)"/><path d="M47.2105 559.118C47.2105 557.514 48.5112 556.213 50.1158 556.213 51.7204 556.213 53.0211 557.514 53.0211 559.118 53.0211 560.722 51.7204 562.023 50.1158 562.023 48.5112 562.023 47.2105 560.722 47.2105 559.118Z" stroke="#172C51" stroke-width="1.33158" stroke-linecap="butt" stroke-linejoin="miter" stroke-miterlimit="8" stroke-opacity="1" fill="#BC607D" fill-rule="evenodd" fill-opacity="0.8" transform="matrix(1.00132 0 0 1 0 4.17053)"/><path d="M51.1928 584.336 60.3958 661.804 59.4039 661.924 50.2009 584.452ZM62.3873 660.227 60.6851 668.475 57.0983 660.854Z" fill="#4472C4" fill-rule="nonzero" fill-opacity="1" transform="matrix(1.00132 0 0 1 0 4.17053)"/><path d="M71.9053 591.947C71.9053 590.344 73.206 589.042 74.8105 589.042 76.4151 589.042 77.7158 590.344 77.7158 591.947 77.7158 593.551 76.4151 594.853 74.8105 594.853 73.206 594.853 71.9053 593.551 71.9053 591.947Z" stroke="#172C51" stroke-width="1.33158" stroke-linecap="butt" stroke-linejoin="miter" stroke-miterlimit="8" stroke-opacity="1" fill="#9BCE30" fill-rule="evenodd" fill-opacity="0.8" transform="matrix(1.00132 0 0 1 0 4.17053)"/><path d="M64.3516 599.211C64.3516 597.607 65.6523 596.305 67.2568 596.305 68.8614 596.305 70.1621 597.607 70.1621 599.211 70.1621 600.814 68.8614 602.116 67.2568 602.116 65.6523 602.116 64.3516 600.814 64.3516 599.211Z" stroke="#172C51" stroke-width="1.33158" stroke-linecap="butt" stroke-linejoin="miter" stroke-miterlimit="8" stroke-opacity="1" fill="#9BCE30" fill-rule="evenodd" fill-opacity="0.8" transform="matrix(1.00132 0 0 1 0 4.17053)"/><path d="M81.2021 585.992C81.2021 584.466 82.5028 583.232 84.1074 583.232 85.712 583.232 87.0126 584.466 87.0126 585.992 87.0126 587.517 85.712 588.752 84.1074 588.752 82.5028 588.752 81.2021 587.517 81.2021 585.992Z" stroke="#172C51" stroke-width="1.33158" stroke-linecap="butt" stroke-linejoin="miter" stroke-miterlimit="8" stroke-opacity="1" fill="#9BCE30" fill-rule="evenodd" fill-opacity="0.8" transform="matrix(1.00132 0 0 1 0 4.17053)"/><path d="M82.6547 600.808C82.6547 599.283 83.8904 598.048 85.4147 598.048 86.9391 598.048 88.1747 599.283 88.1747 600.808 88.1747 602.334 86.9391 603.568 85.4147 603.568 83.8904 603.568 82.6547 602.334 82.6547 600.808Z" stroke="#172C51" stroke-width="1.33158" stroke-linecap="butt" stroke-linejoin="miter" stroke-miterlimit="8" stroke-opacity="1" fill="#9BCE30" fill-rule="evenodd" fill-opacity="0.8" transform="matrix(1.00132 0 0 1 0 4.17053)"/><path d="M78.4566 605.968 105.162 661.717 104.262 662.15 77.556 606.398ZM106.539 659.582 107.588 667.938 101.735 661.883Z" fill="#4472C4" fill-rule="nonzero" fill-opacity="1" transform="matrix(1.00132 0 0 1 0 4.17053)"/><path d="M136.693 566.091C136.693 564.487 137.928 563.185 139.453 563.185 140.977 563.185 142.213 564.487 142.213 566.091 142.213 567.694 140.977 568.996 139.453 568.996 137.928 568.996 136.693 567.694 136.693 566.091Z" stroke="#172C51" stroke-width="1.33158" stroke-linecap="butt" stroke-linejoin="miter" stroke-miterlimit="8" stroke-opacity="1" fill="#808001" fill-rule="evenodd" fill-opacity="0.8" transform="matrix(1.00132 0 0 1 0 4.17053)"/><path d="M140.76 584.83C140.76 583.304 141.996 582.07 143.52 582.07 145.044 582.07 146.28 583.304 146.28 584.83 146.28 586.355 145.044 587.589 143.52 587.589 141.996 587.589 140.76 586.355 140.76 584.83Z" stroke="#172C51" stroke-width="1.33158" stroke-linecap="butt" stroke-linejoin="miter" stroke-miterlimit="8" stroke-opacity="1" fill="#808001" fill-rule="evenodd" fill-opacity="0.8" transform="matrix(1.00132 0 0 1 0 4.17053)"/><path d="M133.206 577.566C133.206 576.041 134.507 574.806 136.112 574.806 137.716 574.806 139.017 576.041 139.017 577.566 139.017 579.092 137.716 580.326 136.112 580.326 134.507 580.326 133.206 579.092 133.206 577.566Z" stroke="#172C51" stroke-width="1.33158" stroke-linecap="butt" stroke-linejoin="miter" stroke-miterlimit="8" stroke-opacity="1" fill="#808001" fill-rule="evenodd" fill-opacity="0.8" transform="matrix(1.00132 0 0 1 0 4.17053)"/><path d="M143.956 573.789C143.956 572.264 145.256 571.029 146.861 571.029 148.466 571.029 149.766 572.264 149.766 573.789 149.766 575.315 148.466 576.549 146.861 576.549 145.256 576.549 143.956 575.315 143.956 573.789Z" stroke="#172C51" stroke-width="1.33158" stroke-linecap="butt" stroke-linejoin="miter" stroke-miterlimit="8" stroke-opacity="1" fill="#808001" fill-rule="evenodd" fill-opacity="0.8" transform="matrix(1.00132 0 0 1 0 4.17053)"/><path d="M0.474229-0.156367 26.3804 78.4113 25.4319 78.7239-0.474229 0.156367ZM28.0184 76.4689 27.9911 84.8906 22.9599 78.1368Z" fill="#4472C4" fill-rule="nonzero" fill-opacity="1" transform="matrix(-1.00132 0 0 1 142.21 594.665)"/><path d="M162.84 581.634C162.84 580.108 164.141 578.874 165.745 578.874 167.35 578.874 168.651 580.108 168.651 581.634 168.651 583.159 167.35 584.394 165.745 584.394 164.141 584.394 162.84 583.159 162.84 581.634Z" stroke="#172C51" stroke-width="1.33158" stroke-linecap="butt" stroke-linejoin="miter" stroke-miterlimit="8" stroke-opacity="1" fill="#40DBCC" fill-rule="evenodd" fill-opacity="1" transform="matrix(1.00132 0 0 1 0 4.17053)"/><path d="M164.874 599.211C164.874 597.607 166.174 596.305 167.779 596.305 169.384 596.305 170.684 597.607 170.684 599.211 170.684 600.814 169.384 602.116 167.779 602.116 166.174 602.116 164.874 600.814 164.874 599.211Z" stroke="#172C51" stroke-width="1.33158" stroke-linecap="butt" stroke-linejoin="miter" stroke-miterlimit="8" stroke-opacity="1" fill="#40DBCC" fill-rule="evenodd" fill-opacity="1" transform="matrix(1.00132 0 0 1 0 4.17053)"/><path d="M159.063 591.657C159.063 590.053 160.299 588.752 161.823 588.752 163.348 588.752 164.583 590.053 164.583 591.657 164.583 593.261 163.348 594.562 161.823 594.562 160.299 594.562 159.063 593.261 159.063 591.657Z" stroke="#172C51" stroke-width="1.33158" stroke-linecap="butt" stroke-linejoin="miter" stroke-miterlimit="8" stroke-opacity="1" fill="#40DBCC" fill-rule="evenodd" fill-opacity="1" transform="matrix(1.00132 0 0 1 0 4.17053)"/><path d="M170.394 576.114C170.394 574.588 171.629 573.354 173.154 573.354 174.678 573.354 175.914 574.588 175.914 576.114 175.914 577.639 174.678 578.874 173.154 578.874 171.629 578.874 170.394 577.639 170.394 576.114Z" stroke="#172C51" stroke-width="1.33158" stroke-linecap="butt" stroke-linejoin="miter" stroke-miterlimit="8" stroke-opacity="1" fill="#40DBCC" fill-rule="evenodd" fill-opacity="1" transform="matrix(1.00132 0 0 1 0 4.17053)"/><path d="M171.265 587.589C171.265 585.986 172.501 584.684 174.025 584.684 175.55 584.684 176.785 585.986 176.785 587.589 176.785 589.193 175.55 590.495 174.025 590.495 172.501 590.495 171.265 589.193 171.265 587.589Z" stroke="#172C51" stroke-width="1.33158" stroke-linecap="butt" stroke-linejoin="miter" stroke-miterlimit="8" stroke-opacity="1" fill="#40DBCC" fill-rule="evenodd" fill-opacity="1" transform="matrix(1.00132 0 0 1 0 4.17053)"/><path d="M0.493802-0.0741862 10.263 64.9515 9.27537 65.1-0.493802 0.0741862ZM12.205 63.3132 10.7583 71.6098 6.93774 64.1046Z" fill="#4472C4" fill-rule="nonzero" fill-opacity="1" transform="matrix(-1.00132 0 0 1 168.591 608.32)"/><path d="M228.499 580.036C228.499 578.432 229.735 577.131 231.259 577.131 232.783 577.131 234.019 578.432 234.019 580.036 234.019 581.64 232.783 582.941 231.259 582.941 229.735 582.941 228.499 581.64 228.499 580.036Z" stroke="#172C51" stroke-width="1.33158" stroke-linecap="butt" stroke-linejoin="miter" stroke-miterlimit="8" stroke-opacity="1" fill="#88CEEC" fill-rule="evenodd" fill-opacity="1" transform="matrix(1.00132 0 0 1 0 4.17053)"/><path d="M222.398 590.495C222.398 588.891 223.634 587.589 225.158 587.589 226.682 587.589 227.918 588.891 227.918 590.495 227.918 592.098 226.682 593.4 225.158 593.4 223.634 593.4 222.398 592.098 222.398 590.495Z" stroke="#172C51" stroke-width="1.33158" stroke-linecap="butt" stroke-linejoin="miter" stroke-miterlimit="8" stroke-opacity="1" fill="#88CEEC" fill-rule="evenodd" fill-opacity="1" transform="matrix(1.00132 0 0 1 0 4.17053)"/><path d="M233.438 588.897C233.438 587.372 234.739 586.137 236.343 586.137 237.948 586.137 239.248 587.372 239.248 588.897 239.248 590.422 237.948 591.657 236.343 591.657 234.739 591.657 233.438 590.422 233.438 588.897Z" stroke="#172C51" stroke-width="1.33158" stroke-linecap="butt" stroke-linejoin="miter" stroke-miterlimit="8" stroke-opacity="1" fill="#88CEEC" fill-rule="evenodd" fill-opacity="1" transform="matrix(1.00132 0 0 1 0 4.17053)"/><path d="M0.491681-0.0871399 14.8901 81.1548 13.9067 81.3291-0.491681 0.0871399ZM16.7884 79.4662 15.5603 87.7976 11.5437 80.3956Z" fill="#4472C4" fill-rule="nonzero" fill-opacity="1" transform="matrix(-1.00132 0 0 1 230.999 600.185)"/><path d="M243.025 561.152C243.025 559.548 244.326 558.246 245.931 558.246 247.535 558.246 248.836 559.548 248.836 561.152 248.836 562.755 247.535 564.057 245.931 564.057 244.326 564.057 243.025 562.755 243.025 561.152Z" stroke="#172C51" stroke-width="1.33158" stroke-linecap="butt" stroke-linejoin="miter" stroke-miterlimit="8" stroke-opacity="1" fill="#0C0081" fill-rule="evenodd" fill-opacity="1" transform="matrix(1.00132 0 0 1 0 4.17053)"/><path d="M255.518 563.185C255.518 561.582 256.754 560.28 258.278 560.28 259.802 560.28 261.038 561.582 261.038 563.185 261.038 564.789 259.802 566.091 258.278 566.091 256.754 566.091 255.518 564.789 255.518 563.185Z" stroke="#172C51" stroke-width="1.33158" stroke-linecap="butt" stroke-linejoin="miter" stroke-miterlimit="8" stroke-opacity="1" fill="#0C0081" fill-rule="evenodd" fill-opacity="1" transform="matrix(1.00132 0 0 1 0 4.17053)"/><path d="M247.093 572.046C247.093 570.521 248.328 569.286 249.853 569.286 251.377 569.286 252.613 570.521 252.613 572.046 252.613 573.572 251.377 574.806 249.853 574.806 248.328 574.806 247.093 573.572 247.093 572.046Z" stroke="#172C51" stroke-width="1.33158" stroke-linecap="butt" stroke-linejoin="miter" stroke-miterlimit="8" stroke-opacity="1" fill="#0C0081" fill-rule="evenodd" fill-opacity="1" transform="matrix(1.00132 0 0 1 0 4.17053)"/><path d="M0.497596-0.0417091 8.84095 99.4957 7.84575 99.5791-0.497596 0.0417091ZM10.886 97.9879 8.89946 106.172 5.57825 98.4329Z" fill="#4472C4" fill-rule="nonzero" fill-opacity="1" transform="matrix(-1.00132 0 0 1 251.675 581.301)"/><path d="M256.389 598.048C256.389 596.445 257.625 595.143 259.149 595.143 260.674 595.143 261.909 596.445 261.909 598.048 261.909 599.652 260.674 600.954 259.149 600.954 257.625 600.954 256.389 599.652 256.389 598.048Z" stroke="#172C51" stroke-width="1.33158" stroke-linecap="butt" stroke-linejoin="miter" stroke-miterlimit="8" stroke-opacity="1" fill="#E7E6FA" fill-rule="evenodd" fill-opacity="1" transform="matrix(1.00132 0 0 1 0 4.17053)"/><path d="M261.038 588.171C261.038 586.567 262.273 585.265 263.798 585.265 265.322 585.265 266.558 586.567 266.558 588.171 266.558 589.774 265.322 591.076 263.798 591.076 262.273 591.076 261.038 589.774 261.038 588.171Z" stroke="#172C51" stroke-width="1.33158" stroke-linecap="butt" stroke-linejoin="miter" stroke-miterlimit="8" stroke-opacity="1" fill="#E7E6FA" fill-rule="evenodd" fill-opacity="1" transform="matrix(1.00132 0 0 1 0 4.17053)"/><path d="M261.826 603.525 268.205 676.592 267.21 676.679 260.831 603.612ZM270.245 675.076 268.287 683.269 264.939 675.541Z" fill="#4472C4" fill-rule="nonzero" fill-opacity="1" transform="matrix(1.00132 0 0 1 0 4.17053)"/><text fill="#000000" fill-opacity="1" font-family="Calibri,Calibri_MSFontService,sans-serif" font-style="normal" font-variant="normal" font-weight="400" font-stretch="normal" font-size="37" text-anchor="start" direction="ltr" writing-mode="lr-tb" unicode-bidi="normal" text-decoration="none" transform="matrix(0.290909 0 0 0.290526 85.0816 717)">Distinct cell state landscapes</text><path d="M57.6695 671.406C57.6695 669.881 58.9702 668.646 60.5747 668.646 62.1793 668.646 63.48 669.881 63.48 671.406 63.48 672.932 62.1793 674.166 60.5747 674.166 58.9702 674.166 57.6695 672.932 57.6695 671.406Z" stroke="#172C51" stroke-width="1.33158" stroke-linecap="butt" stroke-linejoin="miter" stroke-miterlimit="8" stroke-opacity="1" fill="#BC607D" fill-rule="evenodd" fill-opacity="1" transform="matrix(1.00132 0 0 1 0 4.17053)"/><path d="M104.735 670.68C104.735 669.076 106.035 667.775 107.64 667.775 109.245 667.775 110.545 669.076 110.545 670.68 110.545 672.284 109.245 673.585 107.64 673.585 106.035 673.585 104.735 672.284 104.735 670.68Z" stroke="#172C51" stroke-width="1.33158" stroke-linecap="butt" stroke-linejoin="miter" stroke-miterlimit="8" stroke-opacity="1" fill="#9BCE30" fill-rule="evenodd" fill-opacity="0.8" transform="matrix(1.00132 0 0 1 0 4.17053)"/><path d="M111.126 678.088C111.126 676.563 112.427 675.328 114.032 675.328 115.636 675.328 116.937 676.563 116.937 678.088 116.937 679.614 115.636 680.848 114.032 680.848 112.427 680.848 111.126 679.614 111.126 678.088Z" stroke="#172C51" stroke-width="1.33158" stroke-linecap="butt" stroke-linejoin="miter" stroke-miterlimit="8" stroke-opacity="1" fill="#808001" fill-rule="evenodd" fill-opacity="0.8" transform="matrix(1.00132 0 0 1 0 4.17053)"/><path d="M154.705 678.669C154.705 677.144 155.941 675.909 157.465 675.909 158.99 675.909 160.225 677.144 160.225 678.669 160.225 680.195 158.99 681.43 157.465 681.43 155.941 681.43 154.705 680.195 154.705 678.669Z" stroke="#172C51" stroke-width="1.33158" stroke-linecap="butt" stroke-linejoin="miter" stroke-miterlimit="8" stroke-opacity="1" fill="#40DBCC" fill-rule="evenodd" fill-opacity="1" transform="matrix(1.00132 0 0 1 0 4.17053)"/><path d="M212.229 686.804C212.229 685.279 213.53 684.044 215.135 684.044 216.739 684.044 218.04 685.279 218.04 686.804 218.04 688.33 216.739 689.564 215.135 689.564 213.53 689.564 212.229 688.33 212.229 686.804Z" stroke="#172C51" stroke-width="1.33158" stroke-linecap="butt" stroke-linejoin="miter" stroke-miterlimit="8" stroke-opacity="1" fill="#88CEEC" fill-rule="evenodd" fill-opacity="1" transform="matrix(1.00132 0 0 1 0 4.17053)"/><path d="M265.396 686.223C265.396 684.698 266.631 683.463 268.156 683.463 269.68 683.463 270.916 684.698 270.916 686.223 270.916 687.748 269.68 688.983 268.156 688.983 266.631 688.983 265.396 687.748 265.396 686.223Z" stroke="#172C51" stroke-width="1.33158" stroke-linecap="butt" stroke-linejoin="miter" stroke-miterlimit="8" stroke-opacity="1" fill="#E7E6FA" fill-rule="evenodd" fill-opacity="1" transform="matrix(1.00132 0 0 1 0 4.17053)"/><path d="M239.829 686.223C239.829 684.698 241.065 683.463 242.589 683.463 244.114 683.463 245.349 684.698 245.349 686.223 245.349 687.748 244.114 688.983 242.589 688.983 241.065 688.983 239.829 687.748 239.829 686.223Z" stroke="#172C51" stroke-width="1.33158" stroke-linecap="butt" stroke-linejoin="miter" stroke-miterlimit="8" stroke-opacity="1" fill="#0C0081" fill-rule="evenodd" fill-opacity="1" transform="matrix(1.00132 0 0 1 0 4.17053)"/><path d="M1.59789 535.004 299.678 535.004 299.678 720.941 1.59789 720.941Z" stroke="#172C51" stroke-width="1.99737" stroke-linecap="butt" stroke-linejoin="miter" stroke-miterlimit="8" stroke-opacity="1" fill="none" fill-rule="nonzero" transform="matrix(1.00132 0 0 1 0 4.17053)"/><text fill="#000000" fill-opacity="1" font-family="Calibri,Calibri_MSFontService,sans-serif" font-style="normal" font-variant="normal" font-weight="400" font-stretch="normal" font-size="37" text-anchor="start" direction="ltr" writing-mode="lr-tb" unicode-bidi="normal" text-decoration="none" transform="matrix(0.290909 0 0 0.290526 516.977 717)">Unified cell state landscape</text><path d="M442.326 690.145 708.141 690.145" stroke="#000000" stroke-width="1.99737" stroke-linecap="butt" stroke-linejoin="miter" stroke-miterlimit="8" stroke-opacity="1" fill="none" fill-rule="evenodd" transform="matrix(1.00132 0 0 1 0 4.17053)"/><path d="M472.541 686.95C472.541 685.346 473.776 684.044 475.301 684.044 476.826 684.044 478.061 685.346 478.061 686.95 478.061 688.553 476.826 689.855 475.301 689.855 473.776 689.855 472.541 688.553 472.541 686.95Z" stroke="#172C51" stroke-width="1.33158" stroke-linecap="butt" stroke-linejoin="miter" stroke-miterlimit="8" stroke-opacity="1" fill="#BC607D" fill-rule="evenodd" fill-opacity="1" transform="matrix(1.00132 0 0 1 0 4.17053)"/><path d="M519.606 686.95C519.606 685.346 520.841 684.044 522.366 684.044 523.892 684.044 525.126 685.346 525.126 686.95 525.126 688.553 523.892 689.855 522.366 689.855 520.841 689.855 519.606 688.553 519.606 686.95Z" stroke="#172C51" stroke-width="1.33158" stroke-linecap="butt" stroke-linejoin="miter" stroke-miterlimit="8" stroke-opacity="1" fill="#9BCE30" fill-rule="evenodd" fill-opacity="0.8" transform="matrix(1.00132 0 0 1 0 4.17053)"/><path d="M525.998 686.95C525.998 685.346 527.233 684.044 528.758 684.044 530.283 684.044 531.518 685.346 531.518 686.95 531.518 688.553 530.283 689.855 528.758 689.855 527.233 689.855 525.998 688.553 525.998 686.95Z" stroke="#172C51" stroke-width="1.33158" stroke-linecap="butt" stroke-linejoin="miter" stroke-miterlimit="8" stroke-opacity="1" fill="#808001" fill-rule="evenodd" fill-opacity="0.8" transform="matrix(1.00132 0 0 1 0 4.17053)"/><path d="M569.286 686.95C569.286 685.346 570.588 684.044 572.192 684.044 573.795 684.044 575.097 685.346 575.097 686.95 575.097 688.553 573.795 689.855 572.192 689.855 570.588 689.855 569.286 688.553 569.286 686.95Z" stroke="#172C51" stroke-width="1.33158" stroke-linecap="butt" stroke-linejoin="miter" stroke-miterlimit="8" stroke-opacity="1" fill="#40DBCC" fill-rule="evenodd" fill-opacity="1" transform="matrix(1.00132 0 0 1 0 4.17053)"/><path d="M627.101 686.95C627.101 685.346 628.336 684.044 629.861 684.044 631.386 684.044 632.621 685.346 632.621 686.95 632.621 688.553 631.386 689.855 629.861 689.855 628.336 689.855 627.101 688.553 627.101 686.95Z" stroke="#172C51" stroke-width="1.33158" stroke-linecap="butt" stroke-linejoin="miter" stroke-miterlimit="8" stroke-opacity="1" fill="#88CEEC" fill-rule="evenodd" fill-opacity="1" transform="matrix(1.00132 0 0 1 0 4.17053)"/><path d="M679.977 686.95C679.977 685.346 681.278 684.044 682.882 684.044 684.486 684.044 685.787 685.346 685.787 686.95 685.787 688.553 684.486 689.855 682.882 689.855 681.278 689.855 679.977 688.553 679.977 686.95Z" stroke="#172C51" stroke-width="1.33158" stroke-linecap="butt" stroke-linejoin="miter" stroke-miterlimit="8" stroke-opacity="1" fill="#E7E6FA" fill-rule="evenodd" fill-opacity="1" transform="matrix(1.00132 0 0 1 0 4.17053)"/><path d="M654.411 686.95C654.411 685.346 655.645 684.044 657.171 684.044 658.696 684.044 659.931 685.346 659.931 686.95 659.931 688.553 658.696 689.855 657.171 689.855 655.645 689.855 654.411 688.553 654.411 686.95Z" stroke="#172C51" stroke-width="1.33158" stroke-linecap="butt" stroke-linejoin="miter" stroke-miterlimit="8" stroke-opacity="1" fill="#0C0081" fill-rule="evenodd" fill-opacity="1" transform="matrix(1.00132 0 0 1 0 4.17053)"/><path d="M524.255 556.503C524.255 554.899 525.556 553.598 527.16 553.598 528.764 553.598 530.065 554.899 530.065 556.503 530.065 558.107 528.764 559.408 527.16 559.408 525.556 559.408 524.255 558.107 524.255 556.503Z" stroke="#172C51" stroke-width="1.33158" stroke-linecap="butt" stroke-linejoin="miter" stroke-miterlimit="8" stroke-opacity="1" fill="#BC607D" fill-rule="evenodd" fill-opacity="1" transform="matrix(1.00132 0 0 1 0 4.17053)"/><path d="M521.64 567.979C521.64 566.454 522.875 565.219 524.4 565.219 525.925 565.219 527.16 566.454 527.16 567.979 527.16 569.504 525.925 570.739 524.4 570.739 522.875 570.739 521.64 569.504 521.64 567.979Z" stroke="#172C51" stroke-width="1.33158" stroke-linecap="butt" stroke-linejoin="miter" stroke-miterlimit="8" stroke-opacity="1" fill="#BC607D" fill-rule="evenodd" fill-opacity="1" transform="matrix(1.00132 0 0 1 0 4.17053)"/><path d="M521.059 546.771C521.059 545.245 522.361 544.011 523.964 544.011 525.568 544.011 526.87 545.245 526.87 546.771 526.87 548.296 525.568 549.531 523.964 549.531 522.361 549.531 521.059 548.296 521.059 546.771Z" stroke="#172C51" stroke-width="1.33158" stroke-linecap="butt" stroke-linejoin="miter" stroke-miterlimit="8" stroke-opacity="1" fill="#BC607D" fill-rule="evenodd" fill-opacity="0.8" transform="matrix(1.00132 0 0 1 0 4.17053)"/><path d="M511.472 608.362C511.472 606.837 512.773 605.602 514.377 605.602 515.981 605.602 517.282 606.837 517.282 608.362 517.282 609.887 515.981 611.122 514.377 611.122 512.773 611.122 511.472 609.887 511.472 608.362Z" stroke="#172C51" stroke-width="1.33158" stroke-linecap="butt" stroke-linejoin="miter" stroke-miterlimit="8" stroke-opacity="1" fill="#9BCE30" fill-rule="evenodd" fill-opacity="0.8" transform="matrix(1.00132 0 0 1 0 4.17053)"/><path d="M504.208 615.625C504.208 614.1 505.443 612.865 506.968 612.865 508.494 612.865 509.728 614.1 509.728 615.625 509.728 617.151 508.494 618.385 506.968 618.385 505.443 618.385 504.208 617.151 504.208 615.625Z" stroke="#172C51" stroke-width="1.33158" stroke-linecap="butt" stroke-linejoin="miter" stroke-miterlimit="8" stroke-opacity="1" fill="#9BCE30" fill-rule="evenodd" fill-opacity="0.8" transform="matrix(1.00132 0 0 1 0 4.17053)"/><path d="M520.768 602.406C520.768 600.803 522.07 599.501 523.674 599.501 525.277 599.501 526.579 600.803 526.579 602.406 526.579 604.01 525.277 605.312 523.674 605.312 522.07 605.312 520.768 604.01 520.768 602.406Z" stroke="#172C51" stroke-width="1.33158" stroke-linecap="butt" stroke-linejoin="miter" stroke-miterlimit="8" stroke-opacity="1" fill="#9BCE30" fill-rule="evenodd" fill-opacity="0.8" transform="matrix(1.00132 0 0 1 0 4.17053)"/><path d="M522.221 617.223C522.221 615.62 523.456 614.318 524.981 614.318 526.506 614.318 527.741 615.62 527.741 617.223 527.741 618.827 526.506 620.128 524.981 620.128 523.456 620.128 522.221 618.827 522.221 617.223Z" stroke="#172C51" stroke-width="1.33158" stroke-linecap="butt" stroke-linejoin="miter" stroke-miterlimit="8" stroke-opacity="1" fill="#9BCE30" fill-rule="evenodd" fill-opacity="0.8" transform="matrix(1.00132 0 0 1 0 4.17053)"/><path d="M514.086 621.872C514.086 620.268 515.388 618.966 516.992 618.966 518.595 618.966 519.897 620.268 519.897 621.872 519.897 623.475 518.595 624.777 516.992 624.777 515.388 624.777 514.086 623.475 514.086 621.872Z" stroke="#172C51" stroke-width="1.33158" stroke-linecap="butt" stroke-linejoin="miter" stroke-miterlimit="8" stroke-opacity="1" fill="#808001" fill-rule="evenodd" fill-opacity="0.8" transform="matrix(1.00132 0 0 1 0 4.17053)"/><path d="M518.154 640.611C518.154 639.085 519.455 637.851 521.059 637.851 522.663 637.851 523.964 639.085 523.964 640.611 523.964 642.136 522.663 643.371 521.059 643.371 519.455 643.371 518.154 642.136 518.154 640.611Z" stroke="#172C51" stroke-width="1.33158" stroke-linecap="butt" stroke-linejoin="miter" stroke-miterlimit="8" stroke-opacity="1" fill="#808001" fill-rule="evenodd" fill-opacity="0.8" transform="matrix(1.00132 0 0 1 0 4.17053)"/><path d="M510.891 633.347C510.891 631.822 512.125 630.587 513.651 630.587 515.176 630.587 516.411 631.822 516.411 633.347 516.411 634.873 515.176 636.107 513.651 636.107 512.125 636.107 510.891 634.873 510.891 633.347Z" stroke="#172C51" stroke-width="1.33158" stroke-linecap="butt" stroke-linejoin="miter" stroke-miterlimit="8" stroke-opacity="1" fill="#808001" fill-rule="evenodd" fill-opacity="0.8" transform="matrix(1.00132 0 0 1 0 4.17053)"/><path d="M521.64 629.571C521.64 628.045 522.875 626.811 524.4 626.811 525.925 626.811 527.16 628.045 527.16 629.571 527.16 631.096 525.925 632.331 524.4 632.331 522.875 632.331 521.64 631.096 521.64 629.571Z" stroke="#172C51" stroke-width="1.33158" stroke-linecap="butt" stroke-linejoin="miter" stroke-miterlimit="8" stroke-opacity="1" fill="#808001" fill-rule="evenodd" fill-opacity="0.8" transform="matrix(1.00132 0 0 1 0 4.17053)"/><path d="M562.314 584.684C562.314 583.081 563.615 581.779 565.219 581.779 566.823 581.779 568.124 583.081 568.124 584.684 568.124 586.288 566.823 587.589 565.219 587.589 563.615 587.589 562.314 586.288 562.314 584.684Z" stroke="#172C51" stroke-width="1.33158" stroke-linecap="butt" stroke-linejoin="miter" stroke-miterlimit="8" stroke-opacity="1" fill="#40DBCC" fill-rule="evenodd" fill-opacity="1" transform="matrix(1.00132 0 0 1 0 4.17053)"/><path d="M564.347 602.261C564.347 600.736 565.649 599.501 567.253 599.501 568.856 599.501 570.158 600.736 570.158 602.261 570.158 603.786 568.856 605.021 567.253 605.021 565.649 605.021 564.347 603.786 564.347 602.261Z" stroke="#172C51" stroke-width="1.33158" stroke-linecap="butt" stroke-linejoin="miter" stroke-miterlimit="8" stroke-opacity="1" fill="#40DBCC" fill-rule="evenodd" fill-opacity="1" transform="matrix(1.00132 0 0 1 0 4.17053)"/><path d="M558.537 594.707C558.537 593.182 559.772 591.947 561.297 591.947 562.822 591.947 564.057 593.182 564.057 594.707 564.057 596.233 562.822 597.467 561.297 597.467 559.772 597.467 558.537 596.233 558.537 594.707Z" stroke="#172C51" stroke-width="1.33158" stroke-linecap="butt" stroke-linejoin="miter" stroke-miterlimit="8" stroke-opacity="1" fill="#40DBCC" fill-rule="evenodd" fill-opacity="1" transform="matrix(1.00132 0 0 1 0 4.17053)"/><path d="M569.867 579.019C569.867 577.494 571.102 576.259 572.627 576.259 574.153 576.259 575.387 577.494 575.387 579.019 575.387 580.544 574.153 581.779 572.627 581.779 571.102 581.779 569.867 580.544 569.867 579.019Z" stroke="#172C51" stroke-width="1.33158" stroke-linecap="butt" stroke-linejoin="miter" stroke-miterlimit="8" stroke-opacity="1" fill="#40DBCC" fill-rule="evenodd" fill-opacity="1" transform="matrix(1.00132 0 0 1 0 4.17053)"/><path d="M570.448 590.495C570.448 588.891 571.75 587.589 573.354 587.589 574.957 587.589 576.259 588.891 576.259 590.495 576.259 592.098 574.957 593.4 573.354 593.4 571.75 593.4 570.448 592.098 570.448 590.495Z" stroke="#172C51" stroke-width="1.33158" stroke-linecap="butt" stroke-linejoin="miter" stroke-miterlimit="8" stroke-opacity="1" fill="#40DBCC" fill-rule="evenodd" fill-opacity="1" transform="matrix(1.00132 0 0 1 0 4.17053)"/><path d="M607.636 594.417C607.636 592.892 608.937 591.657 610.541 591.657 612.145 591.657 613.446 592.892 613.446 594.417 613.446 595.942 612.145 597.177 610.541 597.177 608.937 597.177 607.636 595.942 607.636 594.417Z" stroke="#172C51" stroke-width="1.33158" stroke-linecap="butt" stroke-linejoin="miter" stroke-miterlimit="8" stroke-opacity="1" fill="#88CEEC" fill-rule="evenodd" fill-opacity="1" transform="matrix(1.00132 0 0 1 0 4.17053)"/><path d="M601.535 604.876C601.535 603.351 602.836 602.116 604.44 602.116 606.044 602.116 607.345 603.351 607.345 604.876 607.345 606.401 606.044 607.636 604.44 607.636 602.836 607.636 601.535 606.401 601.535 604.876Z" stroke="#172C51" stroke-width="1.33158" stroke-linecap="butt" stroke-linejoin="miter" stroke-miterlimit="8" stroke-opacity="1" fill="#88CEEC" fill-rule="evenodd" fill-opacity="1" transform="matrix(1.00132 0 0 1 0 4.17053)"/><path d="M612.865 603.278C612.865 601.674 614.167 600.373 615.771 600.373 617.374 600.373 618.676 601.674 618.676 603.278 618.676 604.882 617.374 606.183 615.771 606.183 614.167 606.183 612.865 604.882 612.865 603.278Z" stroke="#172C51" stroke-width="1.33158" stroke-linecap="butt" stroke-linejoin="miter" stroke-miterlimit="8" stroke-opacity="1" fill="#88CEEC" fill-rule="evenodd" fill-opacity="1" transform="matrix(1.00132 0 0 1 0 4.17053)"/><path d="M618.676 551.419C618.676 549.894 619.977 548.659 621.581 548.659 623.185 548.659 624.486 549.894 624.486 551.419 624.486 552.944 623.185 554.179 621.581 554.179 619.977 554.179 618.676 552.944 618.676 551.419Z" stroke="#172C51" stroke-width="1.33158" stroke-linecap="butt" stroke-linejoin="miter" stroke-miterlimit="8" stroke-opacity="1" fill="#0C0081" fill-rule="evenodd" fill-opacity="1" transform="matrix(1.00132 0 0 1 0 4.17053)"/><path d="M631.168 553.598C631.168 551.994 632.403 550.693 633.928 550.693 635.454 550.693 636.688 551.994 636.688 553.598 636.688 555.202 635.454 556.503 633.928 556.503 632.403 556.503 631.168 555.202 631.168 553.598Z" stroke="#172C51" stroke-width="1.33158" stroke-linecap="butt" stroke-linejoin="miter" stroke-miterlimit="8" stroke-opacity="1" fill="#0C0081" fill-rule="evenodd" fill-opacity="1" transform="matrix(1.00132 0 0 1 0 4.17053)"/><path d="M622.743 562.314C622.743 560.71 623.978 559.408 625.503 559.408 627.028 559.408 628.263 560.71 628.263 562.314 628.263 563.917 627.028 565.219 625.503 565.219 623.978 565.219 622.743 563.917 622.743 562.314Z" stroke="#172C51" stroke-width="1.33158" stroke-linecap="butt" stroke-linejoin="miter" stroke-miterlimit="8" stroke-opacity="1" fill="#0C0081" fill-rule="evenodd" fill-opacity="1" transform="matrix(1.00132 0 0 1 0 4.17053)"/><path d="M635.526 632.185C635.526 630.66 636.761 629.425 638.286 629.425 639.812 629.425 641.046 630.66 641.046 632.185 641.046 633.711 639.812 634.945 638.286 634.945 636.761 634.945 635.526 633.711 635.526 632.185Z" stroke="#172C51" stroke-width="1.33158" stroke-linecap="butt" stroke-linejoin="miter" stroke-miterlimit="8" stroke-opacity="1" fill="#E7E6FA" fill-rule="evenodd" fill-opacity="1" transform="matrix(1.00132 0 0 1 0 4.17053)"/><path d="M640.175 622.307C640.175 620.782 641.409 619.547 642.935 619.547 644.46 619.547 645.695 620.782 645.695 622.307 645.695 623.833 644.46 625.067 642.935 625.067 641.409 625.067 640.175 623.833 640.175 622.307Z" stroke="#172C51" stroke-width="1.33158" stroke-linecap="butt" stroke-linejoin="miter" stroke-miterlimit="8" stroke-opacity="1" fill="#E7E6FA" fill-rule="evenodd" fill-opacity="1" transform="matrix(1.00132 0 0 1 0 4.17053)"/><path d="M474.656 683.954 474.656 557.456 508.334 557.456 508.334 558.456 475.156 558.456 475.656 557.956 475.656 683.954ZM507 555.292 514.99 557.956 507 560.62Z" fill="#4472C4" fill-rule="nonzero" fill-opacity="1" transform="matrix(1.00132 0 0 1 0 4.17053)"/><path d="M528.113 684.03 528.113 664.631 553.453 664.631 552.953 665.131 552.953 630.587 553.453 631.087 536.143 631.087 536.143 630.088 553.952 630.088 553.952 665.628 528.613 665.628 529.112 665.131 529.112 684.03ZM537.474 633.252 529.484 630.587 537.474 627.923Z" fill="#4472C4" fill-rule="nonzero" fill-opacity="1" transform="matrix(1.00132 0 0 1 0 4.17053)"/><path d="M0-0.499342 31.281-0.499342 31.281 36.8841 30.7816 36.3849 75.1981 36.3849 74.6987 36.8841 74.6987 28.6022 75.6975 28.6022 75.6975 37.3835 30.2821 37.3835 30.2821 0 30.7816 0.499342 0 0.499342ZM72.5348 29.9338 75.1981 21.9443 77.8611 29.9338Z" fill="#4472C4" fill-rule="nonzero" fill-opacity="1" transform="matrix(-1.83939e-16 -1 -1.00132 1.83697e-16 523.063 688.165)"/><path d="M0-0.499342 38.9314-0.499342 38.9314 4.47181 38.4323 3.97245 70.2063 3.97245 70.2063 4.97114 37.9329 4.97114 37.9329 0 38.4323 0.499342 0 0.499342ZM68.8748 1.80864 76.8643 4.47181 68.8748 7.13495Z" fill="#4472C4" fill-rule="nonzero" fill-opacity="1" transform="matrix(-1.83939e-16 -1 -1.00132 1.83697e-16 573.059 688.38)"/><path d="M0-0.499342 37.262-0.499342 37.262 19.8002 36.7626 19.3008 66.8675 19.3008 66.8675 20.2995 36.2635 20.2995 36.2635 0 36.7626 0.499342 0 0.499342ZM65.5361 17.137 73.5255 19.8002 65.5361 22.4633Z" fill="#4472C4" fill-rule="nonzero" fill-opacity="1" transform="matrix(-1.83939e-16 -1 -1.00132 1.83697e-16 630.589 688.238)"/><path d="M0-0.499342 128.292-0.499342 128.292 12.23 127.293 12.23 127.293 0 127.792 0.499342 0 0.499342ZM130.456 10.8984 127.792 18.8879 125.129 10.8984Z" fill="#4472C4" fill-rule="nonzero" fill-opacity="1" transform="matrix(-1.83939e-16 -1 -1.00132 1.83697e-16 658.185 688.174)"/><path d="M0-0.499342 57.3374-0.499342 57.3374 29.4007 56.3386 29.4007 56.3386 0 56.838 0.499342 0 0.499342ZM59.5012 28.0691 56.838 36.0587 54.1747 28.0691Z" fill="#4472C4" fill-rule="nonzero" fill-opacity="1" transform="matrix(-1.83939e-16 -1 -1.00132 1.83697e-16 683.814 688.401)"/><path d="M438.84 534.423 717.164 534.423 717.164 720.651 438.84 720.651Z" stroke="#172C51" stroke-width="1.99737" stroke-linecap="butt" stroke-linejoin="miter" stroke-miterlimit="8" stroke-opacity="1" fill="none" fill-rule="nonzero" transform="matrix(1.00132 0 0 1 0 4.17053)"/><text fill="#000000" fill-opacity="1" font-family="Calibri,Calibri_MSFontService,sans-serif" font-style="normal" font-variant="normal" font-weight="400" font-stretch="normal" font-size="46" text-anchor="start" direction="ltr" writing-mode="lr-tb" unicode-bidi="normal" text-decoration="none" transform="matrix(0.290909 0 0 0.290526 109.54 529)">Original atlases</text><text fill="#000000" fill-opacity="1" font-family="Calibri,Calibri_MSFontService,sans-serif" font-style="normal" font-variant="normal" font-weight="400" font-stretch="normal" font-size="46" text-anchor="start" direction="ltr" writing-mode="lr-tb" unicode-bidi="normal" text-decoration="none" transform="matrix(0.290909 0 0 0.290526 527.002 529)">Assembled atlas</text></g></g></g></g></g></svg>